<svg xmlns="http://www.w3.org/2000/svg" width="13" height="13" viewBox="0 0 13 13">
    <g fill="none" fill-rule="evenodd" opacity=".5">
        <g fill="#000" fill-rule="nonzero">
            <g>
                <path d="M11.096 1.904c-2.538-2.538-6.654-2.539-9.192 0-2.539 2.538-2.538 6.654 0 9.192 2.538 2.538 6.654 2.538 9.192 0 2.538-2.538 2.538-6.654 0-9.192zM7.348 9.326c0 .468-.38.848-.848.848-.469 0-.848-.38-.848-.848V5.935c0-.468.38-.848.848-.848.468 0 .848.38.848.848v3.391zm-.863-4.84c-.489 0-.814-.346-.804-.773-.01-.448.315-.783.814-.783.498 0 .814.335.824.783 0 .427-.326.773-.834.773z" transform="translate(-141 -274) translate(141 274)"/>
            </g>
        </g>
    </g>
</svg>
