<svg xmlns="http://www.w3.org/2000/svg" width="26" height="20" viewBox="0 0 26 20">
    <g fill="none" fill-rule="evenodd">
        <g fill="#000" fill-rule="nonzero">
            <g>
                <path d="M3.645 0L1.837 0 1.837 15.353.03 15.353.03 20.774 1.837 20.774 1.837 25.207 3.645 25.207 3.645 20.774 5.452 20.774 5.452 15.353 3.645 15.353zM18.163 0L16.355 0 16.355 13.192 14.548 13.192 14.548 18.613 16.355 18.613 16.355 25.207 18.163 25.207 18.163 18.613 19.97 18.613 19.97 13.192 18.163 13.192zM10.873 0L9.066 0 9.066 3.232 7.259 3.232 7.259 8.654 9.066 8.654 9.066 25.207 10.873 25.207 10.873 8.654 12.681 8.654 12.681 3.232 10.873 3.232z" transform="translate(-327 -350) rotate(90 1.5 351.5)"/>
            </g>
        </g>
    </g>
</svg>
