<svg xmlns="http://www.w3.org/2000/svg" width="19" height="12" viewBox="0 0 19 12">
    <g fill="none" fill-rule="evenodd">
        <g fill-rule="nonzero">
            <g>
                <path fill="#88B324" d="M17.485 3.755c-.024-.255-.226-.456-.48-.48-.143-.014-3.517-.312-5.482 1.653-.426.426-.746.919-.985 1.43-.394-1.614-1.095-2.952-2.058-3.915C7.294 1.257 5.537.468 3.397.162 1.805-.067.565.047.513.052.26.077.057.278.033.532c-.005.053-.12 1.292.11 2.884.306 2.14 1.095 3.898 2.281 5.084 1.186 1.186 2.944 1.975 5.083 2.282.788.113 1.49.142 2.004.142.465 0 .777-.024.86-.031.07.006.284.022.597.022 1.093 0 3.38-.194 4.864-1.678 1.965-1.965 1.667-5.34 1.653-5.482z" transform="translate(-24 -566) translate(24 566)"/>
                <g>
                    <path fill="#FFF" d="M9.16 3.456c-.209-.208-.547-.208-.755 0l-2.93 2.93-4.54-4.54c-.209-.209-.547-.209-.755 0-.209.208-.209.546 0 .754l4.887 4.888c.105.105.241.157.378.157l.03-.002.03.002c.137 0 .273-.052.378-.157l3.276-3.277c.209-.208.209-.546 0-.755z" transform="translate(-24 -566) translate(24 566) translate(5.061 3.249)"/>
                    <path fill="#8CDC52" d="M11.944.026C11.8.012 8.426-.286 6.46 1.679c-.426.427-.745.919-.985 1.43l-.016-.063v4.608c.107.006.26.012.447.012 1.092 0 3.38-.194 4.863-1.678C12.735 4.023 12.438.65 12.424.506c-.024-.254-.226-.456-.48-.48z" transform="translate(-24 -566) translate(24 566) translate(5.061 3.249)"/>
                </g>
                <path fill="#FFF" d="M13.466 6.705l-2.93 2.93-.014-.015v1.273l.014-.001.03.001c.137 0 .274-.052.378-.156L14.22 7.46c.208-.208.208-.546 0-.755-.209-.208-.547-.208-.755 0z" transform="translate(-24 -566) translate(24 566)"/>
            </g>
        </g>
    </g>
</svg>
