<svg xmlns="http://www.w3.org/2000/svg" width="15" height="10" viewBox="0 0 15 10">
    <g fill="none" fill-rule="evenodd">
        <g fill-rule="nonzero">
            <g>
                <path fill="#DE594E" d="M12.076 5.132c-.464.97-3.28 3.55-6.241 4.35-2.913 1.017-5.971.255-5.82-.41-.001-.663 2.465-1.369 4.284-2.817 1.938-1.328 3.228-3.398 3.605-3.991C8.725 1.105 10.135.327 11.37.992c1.315.708 2.024 2.222.705 4.14z" transform="translate(-95 -567) translate(95 567)"/>
                <path fill="#A64139" d="M12.516 4.312c-.463.97-3.28 3.549-6.24 4.349-2.572.899-5.256.41-5.746-.174-.32.208-.515.398-.515.584-.151.666 2.906 1.428 5.82.41 2.96-.798 5.778-3.378 6.241-4.35.21-.303.367-.596.48-.878l-.04.059z" transform="translate(-95 -567) translate(95 567)"/>
                <path fill="#4ABBA4" d="M14.254.381c-.031-.11-.116-.197-.225-.23-.47-.139-1.783-.396-2.862.648-.254-.11-.681-.232-1.164-.115-.4.098-1.375.491-1.809.874-.035.031-.008.088.038.084.325-.034 1.156-.128 1.566-.253.466-.143.645-.066.955.063-.227.238-.51.675-.755 1.478-.135.443-.55.887-.823 1.142-.064.06-.008.166.077.145.536-.133 1.58-.438 1.972-.883.246-.28.473-.516.646-.689.202.498.532.795.357 1.362-.16.517.18 1.182.18 1.182.412-.362.418-.951.524-1.385.191-.776-.24-1.41-.24-1.41l-.14-.203c.011-.166.113-1.223.926-1.324l.495-.062c.204-.025.337-.226.282-.424z" transform="translate(-95 -567) translate(95 567)"/>
            </g>
        </g>
    </g>
</svg>
