<svg xmlns="http://www.w3.org/2000/svg" width="24" height="23" viewBox="0 0 24 23">
    <g fill="none" fill-rule="evenodd">
        <g fill="#FFF" stroke="#232429">
            <path d="M44 495v-2.504c0-.924.624-1.883 1.45-2.308 0 0 .584-.234.847-.463.442-.386.703-.927.703-1.725 0-1.38-1.12-2.5-2.5-2.5-.276 0-.544.07-.79.188-.145.07-.381.237-.381.237-1.123.691-2.349.022-2.407-1.285 0 0-.046-.499-.05-.51-.38-1.254-1.54-2.13-2.872-2.13-1.332 0-2.494.877-2.873 2.133-.003.011-.048.498-.048.498-.046 1.313-1.26 1.965-2.388 1.306 0 0-.256-.18-.4-.249-.247-.118-.515-.188-.791-.188-1.38 0-2.5 1.12-2.5 2.5 0 .825.26 1.365.695 1.736.256.219.797.416.797.416.867.378 1.509 1.365 1.509 2.313V495H34v-3.996c0-.554.444-1.004 1-1.004.552 0 1 .451 1 1.004V495h1v-6.003c0-.55.444-.997 1-.997.552 0 1 .447 1 .997V495h1v-3.996c0-.554.444-1.004 1-1.004.552 0 1 .451 1 1.004V495h2zm-12 2c-.001 1.117-.003 2-.004 2H44v-2H32zm-5-9c0-2.485 2.015-4.5 4.5-4.5.532 0 1.028.114 1.482.307.06.025.175.079.175.079s.042-.287.055-.33C33.844 481.46 35.78 480 38 480c2.22 0 4.154 1.459 4.787 3.551.012.044.056.335.056.335s.246-.111.374-.158c.399-.145.828-.228 1.283-.228 2.485 0 4.5 2.015 4.5 4.5 0 1.394-.523 2.477-1.389 3.232-.52.454-1.245.734-1.245.734-.18.093-.366.379-.366.53V499c0 1.102-.896 2-1.996 2H31.996c-1.103 0-1.996-.899-1.996-2v-6.535c0-.156-.172-.421-.308-.48 0 0-.766-.276-1.295-.727C27.525 490.514 27 489.423 27 488z" transform="translate(-26 -479)"/>
        </g>
    </g>
</svg>
