<svg xmlns="http://www.w3.org/2000/svg" width="22" height="21" viewBox="0 0 22 21">
    <g fill="none" fill-rule="evenodd">
        <g fill="#333" fill-rule="nonzero">
            <path d="M332.2 239.6c0 3.437 3.367 7.59 8.806 11.147 5.44-3.556 8.794-7.622 8.794-11.147 0-2.43-1.97-4.4-4.4-4.4-1.1 0-2.13.402-2.933 1.12l-1.058.947c-.226.202-.589.205-.818 0l-1.058-.947c-.802-.718-1.834-1.12-2.933-1.12-2.43 0-4.4 1.97-4.4 4.4zm8.8-4.92c1.168-1.045 2.71-1.68 4.4-1.68 3.645 0 6.6 2.955 6.6 6.6 0 5.32-5.507 10.45-10.533 13.46-.255.159-.675.161-.93.002-5.06-3-10.537-8.142-10.537-13.462 0-3.645 2.955-6.6 6.6-6.6 1.69 0 3.232.635 4.4 1.68z" transform="translate(-330 -233)"/>
        </g>
    </g>
</svg>
