<svg xmlns="http://www.w3.org/2000/svg" width="24" height="24" viewBox="0 0 24 24">
    <g fill="none" fill-rule="evenodd">
        <g fill="#333" stroke="#FFF">
            <path d="M31 196c6.075 0 11 4.923 11 10.995 0 1.658-.367 3.23-1.025 4.64l.965 4.618c.249 1.19-.51 1.951-1.7 1.699l-4.613-.98c-1.406.653-2.974 1.018-4.627 1.018-6.075 0-11-4.923-11-10.995C20 200.923 24.925 196 31 196zm0 2.199c-4.86 0-8.8 3.938-8.8 8.796 0 4.858 3.94 8.796 8.8 8.796 1.298 0 2.552-.28 3.7-.813l.667-.309 4.181.894-.876-4.194.31-.663c.536-1.15.818-2.409.818-3.711 0-4.858-3.94-8.796-8.8-8.796zm0 7.147c.911 0 1.65.738 1.65 1.649 0 .91-.739 1.65-1.65 1.65-.911 0-1.65-.74-1.65-1.65 0-.91.739-1.65 1.65-1.65zm-4.4 0c.911 0 1.65.738 1.65 1.649 0 .91-.739 1.65-1.65 1.65-.911 0-1.65-.74-1.65-1.65 0-.91.739-1.65 1.65-1.65zm8.8 0c.911 0 1.65.738 1.65 1.649 0 .91-.739 1.65-1.65 1.65-.911 0-1.65-.74-1.65-1.65 0-.91.739-1.65 1.65-1.65z" transform="translate(-19 -195)"/>
        </g>
    </g>
</svg>
