<svg xmlns="http://www.w3.org/2000/svg" width="24" height="24" viewBox="0 0 24 24">
    <g fill="none" fill-rule="evenodd">
        <g fill="#333" stroke="#FFF">
            <path d="M36.396 260.048c-1.49-1.158-3.362-1.848-5.396-1.848-4.86 0-8.8 3.94-8.8 8.8 0 2.034.69 3.906 1.848 5.396l12.348-12.348h0zm1.556 1.556c1.158 1.49 1.848 3.362 1.848 5.396 0 4.86-3.94 8.8-8.8 8.8-2.034 0-3.906-.69-5.396-1.848l12.348-12.348h0zM42 267c0-6.075-4.925-11-11-11s-11 4.925-11 11 4.925 11 11 11 11-4.925 11-11z" transform="translate(-19 -255)"/>
        </g>
    </g>
</svg>
