<svg xmlns="http://www.w3.org/2000/svg" width="14" height="14" viewBox="0 0 14 14">
    <g fill="none" fill-rule="evenodd">
        <g fill="#333" stroke="#333">
            <path d="M333.374 176.374c.492-.146.617-.09.707 0 .091.09.147.216.147.354h0v7.5h7.5c.138 0 .263.056.353.146.091.09.147.216.147.354 0 .138-.056.263-.147.353-.09.091-.215.147-.353.147h0-7.5v7.5c0 .138-.056.263-.147.353-.09.091-.215.147-.353.147-.138 0-.263-.056-.354-.147-.09-.09-.146-.215-.146-.353h0v-7.5h-7.5c-.138 0-.263-.056-.354-.147-.09-.09-.146-.215-.146-.353 0-.138.056-.263.146-.354.09-.09.216-.146.354-.146h7.5v-7.5c0-.138.056-.263.146-.354z" transform="translate(-327 -178) rotate(135 333.728 184.728)"/>
        </g>
    </g>
</svg>
