<svg xmlns="http://www.w3.org/2000/svg" width="16" height="16" viewBox="0 0 16 16">
    <g fill="none" fill-rule="evenodd">
        <g fill="#000">
            <path d="M163 286.09c0-.442.357-.8.799-.8H178.2c.441 0 .799.355.799.8 0 .442-.357.8-.799.8H163.8c-.441 0-.799-.355-.799-.8zm14.29-14.623l1.135 1.133c.624.625.624 1.637-.003 2.263l-7.918 7.919-2.978.747c-.858.215-1.378-.309-1.164-1.164l.748-2.978 7.918-7.918c.626-.625 1.64-.624 2.263-.002zm-7.07 9.335l-1.13-1.131-.535.535-.376 1.506 1.5-.368.542-.542zm5.374-5.373l-1.132-1.134-4.24 4.244 1.13 1.131 4.242-4.241z" transform="translate(-163 -271)"/>
        </g>
    </g>
</svg>
