<svg xmlns="http://www.w3.org/2000/svg" width="23" height="23" viewBox="0 0 23 23">
    <g fill="none" fill-rule="evenodd">
        <g fill="#FFF" stroke="#232429">
            <path d="M32.1 675.74v1.424c.367.224 3.303 1.733 8.4 1.733s8.033-1.507 8.4-1.731v-1.426c0-1.802-3.997-3.203-4.282-3.31-.894 1.604-2.216 2.795-4.118 2.795-1.9 0-3.222-1.19-4.116-2.793-.282.106-4.284 1.502-4.284 3.308zm2.625-10.302c0-3.004 2.586-5.438 5.775-5.438 3.19 0 5.775 2.434 5.775 5.438 0 1.274-.223 3.23-.826 5.058 2.103.803 5.551 2.105 5.551 5.244v2.108c0 1.16-4.53 3.152-10.5 3.152S30 679.004 30 677.848v-2.108c0-3.15 3.45-4.44 5.552-5.241-.604-1.83-.827-3.786-.827-5.061zm5.775 7.687c2.068 0 3.675-3.798 3.675-7.687 0-1.815-1.618-3.338-3.675-3.338-2.057 0-3.675 1.523-3.675 3.338 0 3.889 1.607 7.687 3.675 7.687z" transform="translate(-29 -659)"/>
        </g>
    </g>
</svg>
