<svg xmlns="http://www.w3.org/2000/svg" width="24" height="24" viewBox="0 0 24 24">
    <g fill="none" fill-rule="evenodd">
        <g fill="#FFF" stroke="#232429">
            <path d="M38 452c-6.075 0-11-4.925-11-11s4.925-11 11-11 11 4.925 11 11-4.925 11-11 11zm0-2.2c4.86 0 8.8-3.94 8.8-8.8 0-4.86-3.94-8.8-8.8-8.8-4.86 0-8.8 3.94-8.8 8.8 0 4.86 3.94 8.8 8.8 8.8zm0-13.2c-1.215 0-2.2.985-2.2 2.2 0 .608-.492 1.1-1.1 1.1-.608 0-1.1-.492-1.1-1.1 0-2.43 1.97-4.4 4.4-4.4 2.455 0 4.407 1.765 4.407 4.178 0 1.318-.463 2.125-1.451 2.976-.101.087-1.245 1.015-1.288 1.05-.458.366-.554.531-.554 1.079 0 .608-.492 1.1-1.1 1.1-.607 0-1.1-.492-1.1-1.1 0-1.287.44-2.045 1.38-2.798-.036.03 1.144-.928 1.227-.999.544-.468.686-.716.686-1.308 0-1.146-.92-1.978-2.207-1.978zm0 11c-.608 0-1.1-.492-1.1-1.1 0-.608.492-1.1 1.1-1.1.608 0 1.1.492 1.1 1.1 0 .608-.492 1.1-1.1 1.1z" transform="translate(-26 -429)"/>
        </g>
    </g>
</svg>
