<svg xmlns="http://www.w3.org/2000/svg" width="24" height="24" viewBox="0 0 24 24">
    <g fill="none" fill-rule="evenodd">
        <g fill="#FFF">
            <path d="M55.406 682.6c.66 0 1.194-.534 1.194-1.194v-16.812c0-.66-.534-1.194-1.194-1.194H38.594c-.66 0-1.194.534-1.194 1.194v16.812c0 .66.534 1.194 1.194 1.194H47v-7.2h-1.2c-.663 0-1.2-.537-1.2-1.2 0-.663.537-1.2 1.2-1.2H47c0-2.276.257-3.71 1.325-4.906 1.055-1.181 2.289-1.694 3.475-1.694.663 0 1.2.537 1.2 1.2 0 .663-.537 1.2-1.2 1.2-.525 0-1.102.24-1.686.893-.531.595-.714 1.616-.714 3.307h2.4c.663 0 1.2.537 1.2 1.2 0 .663-.537 1.2-1.2 1.2h-2.4v7.2h6.006zM35 681.406v-16.812c0-1.985 1.609-3.594 3.594-3.594h16.812c1.985 0 3.594 1.609 3.594 3.594v16.812c0 1.985-1.609 3.594-3.594 3.594H38.594C36.61 685 35 683.391 35 681.406z" transform="translate(-35 -661)"/>
        </g>
    </g>
</svg>
