<svg xmlns="http://www.w3.org/2000/svg" width="155" height="38" viewBox="0 0 155 38">
    <g fill="none" fill-rule="evenodd">
        <g fill-rule="nonzero">
            <g>
                <path fill="#44BEB9" d="M0 37.1L0 32.119 19.389 8.252.144 8.252.144 1.923 28.876 1.923 28.876 6.889 9.487 30.742 29.077 30.742 29.077 37.071 0 37.071zM41.448 37.559c-2.813 0-5.11-.746-6.874-2.24-1.78-1.492-2.655-3.43-2.655-5.797 0-2.483.961-4.42 2.856-5.827 1.908-1.407 4.535-2.11 7.893-2.11 1.076 0 2.138.086 3.215.259 1.076.172 2.124.416 3.172.746v-1.852c0-1.507-.474-2.64-1.407-3.415-.933-.775-2.31-1.148-4.119-1.148-1.105 0-2.296.172-3.588.53-1.291.36-2.755.89-4.391 1.637l-2.512-5.08c2.038-.934 4.033-1.637 5.956-2.11 1.923-.474 3.832-.704 5.698-.704 3.516 0 6.257.847 8.209 2.54 1.966 1.694 2.942 4.076 2.942 7.162v16.978H49.07V35.32c-1.105.775-2.268 1.335-3.488 1.708-1.262.344-2.626.53-4.133.53zm-2.97-8.195c0 1.005.43 1.794 1.305 2.382.876.589 2.024.876 3.473.876 1.134 0 2.182-.144 3.144-.43.961-.288 1.837-.69 2.64-1.235v-3.918c-.832-.33-1.722-.574-2.64-.732-.919-.144-1.88-.23-2.885-.23-1.579 0-2.799.287-3.689.876-.904.617-1.349 1.406-1.349 2.41zM88.565 24.04c0 1.88-.344 3.63-1.047 5.266-.704 1.637-1.65 3.057-2.87 4.263-1.206 1.206-2.642 2.153-4.292 2.842-1.665.689-3.43 1.033-5.296 1.033-1.306 0-2.583-.187-3.817-.545-1.235-.374-2.383-.89-3.416-1.55v1.75h-6.789V1.939L67.913.43v12.557c1.033-.775 2.181-1.363 3.444-1.78 1.263-.415 2.555-.63 3.89-.63 1.837 0 3.573.358 5.195 1.061 1.622.704 3.043 1.665 4.248 2.87 1.206 1.206 2.153 2.627 2.842 4.263.689 1.636 1.033 3.402 1.033 5.267zm-14.423-7.578c-1.235 0-2.397.215-3.473.631-1.077.416-1.995 1.033-2.756 1.837v10.29c.732.732 1.65 1.32 2.741 1.766 1.09.43 2.253.645 3.488.645 2.138 0 3.946-.731 5.425-2.181 1.478-1.45 2.21-3.258 2.21-5.396 0-2.139-.746-3.947-2.239-5.397-1.478-1.478-3.287-2.195-5.396-2.195zM120.312 24.04c0 1.88-.345 3.63-1.048 5.266-.703 1.637-1.65 3.057-2.87 4.263-1.206 1.206-2.641 2.153-4.292 2.842-1.665.689-3.43 1.033-5.296 1.033-1.306 0-2.583-.187-3.817-.545-1.234-.374-2.383-.89-3.416-1.55v1.75h-6.788V1.939L99.659.43v12.557c1.034-.775 2.182-1.363 3.445-1.78 1.263-.415 2.554-.63 3.89-.63 1.836 0 3.573.358 5.194 1.061 1.622.704 3.043 1.665 4.249 2.87 1.205 1.206 2.152 2.627 2.841 4.263.69 1.636 1.034 3.402 1.034 5.267zm-14.424-7.578c-1.234 0-2.397.215-3.473.631-1.077.416-1.995 1.033-2.756 1.837v10.29c.732.732 1.65 1.32 2.741 1.766 1.091.43 2.254.645 3.488.645 2.138 0 3.947-.731 5.425-2.181 1.478-1.45 2.21-3.258 2.21-5.396 0-2.139-.746-3.947-2.239-5.397-1.478-1.478-3.286-2.195-5.396-2.195z" transform="translate(-20 -132) translate(20 132)"/>
                <path fill="#FC5F4D" d="M127.947 7.822c-1.077 0-1.995-.388-2.756-1.148-.775-.775-1.162-1.694-1.162-2.756 0-1.062.387-1.995 1.162-2.756C125.966.389 126.885 0 127.947 0c1.076 0 1.995.388 2.755 1.163.775.774 1.163 1.693 1.163 2.755 0 1.062-.388 1.995-1.163 2.756-.775.76-1.693 1.148-2.755 1.148z" transform="translate(-20 -132) translate(20 132)"/>
                <path fill="#44BEB9" d="M124.531 10.936H131.406V37.114000000000004H124.531zM140.347 29.723V16.706h-5.382v-5.784h5.382V4.248l6.874-1.55v8.238h7.435v5.784h-7.435v11.596c0 1.234.273 2.11.804 2.612.531.503 1.478.747 2.813.747.631 0 1.234-.044 1.808-.13.574-.086 1.192-.244 1.852-.473v5.626c-.732.23-1.622.43-2.655.574-1.034.158-1.924.23-2.655.23-2.914 0-5.11-.66-6.602-1.981-1.493-1.32-2.24-3.258-2.24-5.798z" transform="translate(-20 -132) translate(20 132)"/>
            </g>
        </g>
    </g>
</svg>
