<svg xmlns="http://www.w3.org/2000/svg" width="29" height="29" viewBox="0 0 29 29">
    <g fill="none" fill-rule="evenodd">
        <g>
            <g transform="translate(-287 -55) translate(287 55)">
                <circle cx="14.5" cy="14.5" r="14.5" fill="#FFF"/>
                <path fill="#333" fill-rule="nonzero" d="M18.008 16.682c.738-1.008 1.18-2.246 1.18-3.588 0-3.36-2.734-6.094-6.094-6.094C9.734 7 7 9.734 7 13.094c0 3.36 2.734 6.093 6.094 6.093 1.342 0 2.58-.441 3.588-1.18L20.674 22 22 20.674l-3.992-3.992zm-4.914.63c-2.327 0-4.219-1.892-4.219-4.218 0-2.327 1.892-4.219 4.219-4.219 2.326 0 4.218 1.892 4.218 4.219 0 2.326-1.892 4.218-4.218 4.218z"/>
            </g>
        </g>
    </g>
</svg>
