<svg xmlns="http://www.w3.org/2000/svg" width="29" height="29" viewBox="0 0 29 29">
    <g fill="none" fill-rule="evenodd">
        <g>
            <g transform="translate(-326 -55) translate(326 55)">
                <circle cx="14.5" cy="14.5" r="14.5" fill="#FFF"/>
                <path fill="#000" d="M8.5 18.243v1.017c.262.16 2.36 1.238 6 1.238s5.738-1.077 6-1.237v-1.018c0-1.287-2.855-2.288-3.059-2.365-.638 1.146-1.583 1.997-2.941 1.997-1.358 0-2.302-.85-2.94-1.995-.202.076-3.06 1.073-3.06 2.363zm1.875-7.359C10.375 8.739 12.222 7 14.5 7s4.125 1.739 4.125 3.884c0 .91-.159 2.307-.59 3.613 1.502.574 3.965 1.504 3.965 3.746v1.505C22 20.577 18.764 22 14.5 22 10.236 22 7 20.574 7 19.748v-1.505c0-2.25 2.464-3.171 3.965-3.744-.43-1.307-.59-2.704-.59-3.615zm4.125 5.491c1.477 0 2.625-2.713 2.625-5.491 0-1.296-1.156-2.384-2.625-2.384-1.47 0-2.625 1.088-2.625 2.384 0 2.778 1.148 5.491 2.625 5.491z"/>
            </g>
        </g>
    </g>
</svg>
