<svg xmlns="http://www.w3.org/2000/svg" width="42" height="42" viewBox="0 0 42 42">
    <g fill="none" fill-rule="evenodd">
        <g>
            <g transform="translate(-20 -138) translate(20 138)">
                <circle cx="21" cy="21" r="21" fill="#0071BF"/>
                <g fill="#FFF" fill-rule="nonzero">
                    <path d="M3.517.119L.028 7.966h4.177l.518-1.25h1.184l.517 1.25h4.598v-.955l.41.955h2.378l.41-.975v.975h9.56l1.163-1.218 1.089 1.218 4.911.01-3.5-3.912 3.5-3.945h-4.835l-1.132 1.196L23.922.12H13.52l-.893 2.025L11.713.12H7.545v.922L7.081.12H3.517zm.809 1.114h2.036l2.314 5.322V1.233h2.23l1.788 3.816 1.647-3.816h2.22v5.631H15.21l-.011-4.412-1.969 4.412h-1.208l-1.98-4.412v4.412H7.266l-.527-1.262H3.893l-.526 1.261H1.88l2.447-5.63zm13.47 0h5.49l1.68 1.844 1.733-1.844h1.68l-2.552 2.83 2.551 2.798h-1.755l-1.68-1.865-1.742 1.865h-5.406V1.233zm-12.48.953l-.937 2.249h1.873l-.936-2.249zm13.835.213v1.028h2.996v1.146H19.15v1.122h3.36l1.561-1.653-1.495-1.644h-3.426V2.4z" transform="translate(6 17)"/>
                </g>
            </g>
        </g>
    </g>
</svg>
