<svg xmlns="http://www.w3.org/2000/svg" width="10" height="17" viewBox="0 0 10 17">
    <g fill="none" fill-rule="evenodd">
        <g fill="#000" fill-rule="nonzero">
            <g>
                <path d="M3.366 8.337l6.347-6.235c.174-.172.27-.4.27-.645 0-.244-.096-.473-.27-.645L9.156.266C8.982.095 8.75 0 8.5 0c-.248 0-.481.095-.656.266L.287 7.69c-.175.172-.271.402-.27.646-.001.246.095.476.27.648l7.55 7.416c.175.172.408.267.656.267.249 0 .482-.095.657-.267l.556-.546c.361-.355.361-.934 0-1.29l-6.34-6.227z" transform="translate(-20 -53) translate(20 53)"/>
            </g>
        </g>
    </g>
</svg>
