<svg xmlns="http://www.w3.org/2000/svg" width="86" height="86" viewBox="0 0 86 86">
    <g fill="none" fill-rule="evenodd" opacity=".1">
        <g fill="#44BEB9" fill-rule="nonzero">
            <path d="M304.04 151.003c9.37-.064 18.74.873 27.918 2.798 10.374 2.837 20.43 6.7 30.042 11.553-3.865 3.876-8.429 6.983-13.438 9.14-21.893 9.434-47.218-.822-56.562-22.926 3.992-.385 8.01-.565 12.04-.565zm-6.04-42.46c14.483-18.522 41.162-22.013 59.926-7.82 18.954 14.346 22.702 41.323 8.346 60.277-6.428-5.51-13.466-10.27-20.974-14.18-.204-.102-.343-.305-.394-.534-.076-.419.19-.825.61-.901 8.512-1.676 16.807-6.487 21.241-9.395.305-.203.585-.47.788-.774.864-1.295.533-3.047-.762-3.923-6.581-4.456-22.97-14.091-48.467-19.69-6.708-1.447-13.492-2.476-20.314-3.06zm56.246 21.47c1.37-.14 2.601.863 2.741 2.233.14 1.37-.863 2.601-2.233 2.741-1.383.14-2.601-.863-2.741-2.233-.14-1.37.863-2.601 2.233-2.741zM292.758 116c22.13 4.346 31.69 9.596 30.065 11.22-.152.144-.355.209-.558.196-2.438-.183-4.888-.288-7.364-.314-1.308-.04-2.616-.066-3.936-.066h-.406c-7.225-.091-14.449.563-21.559 1.964.597-4.504 1.866-8.89 3.758-13z" transform="translate(-289 -92)"/>
        </g>
    </g>
</svg>
