<svg xmlns="http://www.w3.org/2000/svg" width="16" height="16" viewBox="0 0 16 16">
    <g fill="none" fill-rule="evenodd">
        <g fill="#333" fill-rule="nonzero">
            <g>
                <path d="M11.415 10.04c.766-1.045 1.224-2.329 1.224-3.72 0-3.485-2.835-6.32-6.32-6.32C2.835 0 0 2.835 0 6.32c0 3.484 2.835 6.319 6.32 6.319 1.391 0 2.675-.458 3.72-1.223l4.14 4.14 1.376-1.375-4.14-4.14zm-5.096.654c-2.412 0-4.375-1.962-4.375-4.375 0-2.412 1.963-4.374 4.375-4.374 2.413 0 4.375 1.962 4.375 4.374 0 2.413-1.962 4.375-4.375 4.375z" transform="translate(-34 -352) translate(34 352)"/>
            </g>
        </g>
    </g>
</svg>
