<svg xmlns="http://www.w3.org/2000/svg" width="24" height="24" viewBox="0 0 24 24">
    <g fill="none" fill-rule="evenodd">
        <g fill="#FFF">
            <g>
                <path d="M39 37.627c0 1.329-.865 1.76-1.918.971L31.2 34.2H17.4c-1.325 0-2.4-1.073-2.4-2.403V17.403C15 16.076 16.078 15 17.4 15h19.2c1.325 0 2.4 1.073 2.4 2.403v20.224zm-2.4-20.224L17.4 17.4v14.397l14.598.003 4.625 3.458-.023-17.855zM27 26.4c-.994 0-1.8-.806-1.8-1.8s.806-1.8 1.8-1.8 1.8.806 1.8 1.8-.806 1.8-1.8 1.8zm-4.8 0c-.994 0-1.8-.806-1.8-1.8s.806-1.8 1.8-1.8 1.8.806 1.8 1.8-.806 1.8-1.8 1.8zm9.6 0c-.994 0-1.8-.806-1.8-1.8s.806-1.8 1.8-1.8 1.8.806 1.8 1.8-.806 1.8-1.8 1.8z" transform="translate(-35 -727) translate(20 712)"/>
            </g>
        </g>
    </g>
</svg>
