<svg xmlns="http://www.w3.org/2000/svg" width="23" height="23" viewBox="0 0 23 23">
    <g fill="none" fill-rule="evenodd">
        <g fill="#FFF" stroke="#232429">
            <path d="M41.266 261.775c.29-.503.932-.674 1.434-.384.503.29.674.932.384 1.434l-2.169 3.753c.459.547.735 1.252.735 2.022 0 1.74-1.41 3.15-3.15 3.15s-3.15-1.41-3.15-3.15 1.41-3.15 3.15-3.15c.208 0 .411.02.608.059l2.158-3.734zM38.5 277c-5.799 0-10.5-4.701-10.5-10.5S32.701 256 38.5 256 49 260.701 49 266.5 44.299 277 38.5 277zm0-2.1c4.64 0 8.4-3.76 8.4-8.4 0-4.64-3.76-8.4-8.4-8.4-4.64 0-8.4 3.76-8.4 8.4 0 4.64 3.76 8.4 8.4 8.4zm0-5.25c.58 0 1.05-.47 1.05-1.05 0-.58-.47-1.05-1.05-1.05-.58 0-1.05.47-1.05 1.05 0 .58.47 1.05 1.05 1.05z" transform="translate(-27 -255)"/>
        </g>
    </g>
</svg>
