<svg xmlns="http://www.w3.org/2000/svg" width="27" height="14" viewBox="0 0 27 14">
    <g fill="none" fill-rule="evenodd">
        <g fill="#FFF" fill-rule="nonzero">
            <g>
                <path d="M25.945 5.484H3.61l3.7-3.682c.413-.41.415-1.078.004-1.491C6.902-.102 6.234-.104 5.82.307L.311 5.791l-.002.002c-.411.41-.413 1.08 0 1.493H.31l5.511 5.485c.413.41 1.08.41 1.492-.004.41-.412.41-1.08-.004-1.491l-3.7-3.682h22.336c.583 0 1.055-.472 1.055-1.055 0-.582-.472-1.055-1.055-1.055z" transform="translate(-20 -64) translate(20 64)"/>
            </g>
        </g>
    </g>
</svg>
