<svg xmlns="http://www.w3.org/2000/svg" width="8" height="14" viewBox="0 0 8 14">
    <g fill="none" fill-rule="evenodd">
        <g fill="#FFF" fill-rule="nonzero">
            <g>
                <path d="M309.677 24.664l5.073-4.984c.14-.137.217-.32.217-.515 0-.196-.077-.378-.217-.516l-.444-.436c-.14-.137-.326-.213-.525-.213-.198 0-.385.076-.524.213l-6.04 5.934c-.14.137-.218.321-.217.517 0 .196.076.38.216.517l6.035 5.928c.14.138.326.213.525.213.198 0 .385-.075.524-.213l.445-.436c.289-.284.289-.747 0-1.03l-5.068-4.98z" transform="translate(-327 -860) translate(20 842) matrix(-1 0 0 1 621.967 0)"/>
            </g>
        </g>
    </g>
</svg>
