<svg xmlns="http://www.w3.org/2000/svg" width="18" height="18" viewBox="0 0 18 18">
    <g fill="none" fill-rule="evenodd">
        <g fill="#FFF" stroke="#232429" stroke-width=".5">
            <path d="M42.998 363.2c.443 0 .802.355.802.8 0 .442-.359.8-.802.8h-3.996c-.443 0-.802-.355-.802-.8v-3.2c0-.442.355-.8.8-.8.442 0 .8.355.8.8v2.4h3.198zm2.402 5.6v-2.402c0-.44.355-.798.8-.798.442 0 .8.358.8.798v4.804c0 .44-.355.798-.8.798-.442 0-.8-.358-.8-.798v-.802h-1.6v.797c0 .443-.355.803-.8.803-.442 0-.8-.36-.8-.803v-.797h-.802c-.44 0-.798-.355-.798-.8 0-.442.358-.8.798-.8h.802v-.797c0-.443.355-.803.8-.803.442 0 .8.36.8.803v.797h1.6zM31 356.798c0-.44.358-.798.798-.798h4.804c.44 0 .798.358.798.798v4.804c0 .44-.358.798-.798.798h-4.804c-.44 0-.798-.358-.798-.798v-4.804zm9.6 0c0-.44.358-.798.798-.798h4.804c.44 0 .798.358.798.798v4.804c0 .44-.358.798-.798.798h-4.804c-.44 0-.798-.358-.798-.798v-4.804zm-9.6 9.6c0-.44.358-.798.798-.798h4.804c.44 0 .798.358.798.798v4.804c0 .44-.358.798-.798.798h-4.804c-.44 0-.798-.358-.798-.798v-4.804zm1.6-8.798v3.2h3.2v-3.2h-3.2zm9.6 0v3.2h3.2v-3.2h-3.2zm-9.6 9.6v3.2h3.2v-3.2h-3.2zM31 364c0-.442.355-.8.8-.8.442 0 .8.355.8.8 0 .442-.355.8-.8.8-.442 0-.8-.355-.8-.8zm2.4-4.8c0-.442.355-.8.8-.8.442 0 .8.355.8.8 0 .442-.355.8-.8.8-.442 0-.8-.355-.8-.8zm4.8 7.2c0-.442.355-.8.8-.8h2.4c.442 0 .8.355.8.8 0 .442-.355.8-.8.8H39c-.442 0-.8-.355-.8-.8zm7.2-2.4c0-.442.355-.8.8-.8.442 0 .8.355.8.8 0 .442-.355.8-.8.8-.442 0-.8-.355-.8-.8zm-7.2 7.2c0-.442.355-.8.8-.8.442 0 .8.355.8.8 0 .442-.355.8-.8.8-.442 0-.8-.355-.8-.8zm-4.8-7.2c0-.442.355-.8.8-.8h2.4c.442 0 .8.355.8.8 0 .442-.355.8-.8.8h-2.4c-.442 0-.8-.355-.8-.8zm0 4.8c0-.442.355-.8.8-.8.442 0 .8.355.8.8 0 .442-.355.8-.8.8-.442 0-.8-.355-.8-.8zm9.6-9.6c0-.442.355-.8.8-.8.442 0 .8.355.8.8 0 .442-.355.8-.8.8-.442 0-.8-.355-.8-.8zm-4.8-2.4c0-.442.355-.8.8-.8.442 0 .8.355.8.8v1.6c0 .442-.355.8-.8.8-.442 0-.8-.355-.8-.8v-1.6z" transform="translate(-30 -355)"/>
        </g>
    </g>
</svg>
