<svg xmlns="http://www.w3.org/2000/svg" width="23" height="23" viewBox="0 0 23 23">
    <g fill="none" fill-rule="evenodd">
        <g fill="#FFF">
            <path d="M50.815 614.259c2.432.026 3.637-.465 4.251-1.644h-.443c-.607 0-1.099-.486-1.099-1.095 0-.605.486-1.095 1.099-1.095h1.097l.285-1.095h-.834c-.607 0-1.099-.486-1.099-1.096 0-.604.486-1.095 1.099-1.095h1.4l.215-.84c.104-.48-.16-.803-.674-.803h-3.953c-1.683 0-2.924-1.502-2.592-3.161.011-.057.327-1.65.348-1.768.226-1.282.332-2.198.324-2.72v-.075c.006-.327-.193-.676-.717-1.084-.059-.046-.444-.28-.444-.28l-3.158 6.826c-.585 1.265-1.954 2.179-3.348 2.257v8.772l8.243-.004zm-10.434-8.763h-2.19v8.768h2.19v-8.768zm-2.19 10.953c-1.21 0-2.191-.977-2.191-2.185v-8.773c0-1.207.982-2.185 2.19-2.185h4.189c.607 0 1.292-.47 1.553-.991.262-.523 3.407-7.364 3.407-7.364.385-.833 1.38-1.195 2.21-.776 0 0 .798.379 1.32.785.968.755 1.58 1.71 1.56 2.851.012.722-.118 1.785-.357 3.137-.064.361-.357 1.819-.357 1.819-.06.298.139.538.444.538h3.953c1.906 0 3.213 1.605 2.82 3.443-.012.062-1.393 5.604-1.642 6.247-.93 2.516-3.084 3.49-6.498 3.454-1.568.008-12.602 0-12.602 0z" transform="translate(-36 -594)"/>
        </g>
    </g>
</svg>
