<svg xmlns="http://www.w3.org/2000/svg" width="16" height="16" viewBox="0 0 16 16">
    <g fill="none" fill-rule="evenodd">
        <g fill="#FFF" stroke="#FF5041" stroke-width=".5">
            <g>
                <path d="M11.684 14.43c1.271.228 2.21 1.087 2.21 2.804 0 2.035-1.319 4.503-2.947 4.503C9.32 21.737 8 19.269 8 17.234c0-1.717.94-2.576 2.21-2.803v-.847c-.635-.164-1.105-.74-1.105-1.424V8.472c0-.813.659-1.472 1.478-1.472h.73c.815 0 1.476.66 1.476 1.472v3.688c0 .685-.468 1.26-1.105 1.425v.846zm5.527-2.27V8.472c0-.813.658-1.472 1.477-1.472h.73c.815 0 1.477.66 1.477 1.472v3.688c0 .685-.468 1.26-1.106 1.425v.885c1.285.363 2.211 1.654 2.211 3.16V21c0 .407-.33.737-.737.737s-.737-.33-.737-.737v-3.37c0-.107-.007-.212-.022-.314h-.715V21c0 .406-.327.736-.736.736-.407 0-.737-.33-.737-.736v-3.685h-.714c-.015.102-.023.207-.023.315V21c0 .407-.33.737-.737.737s-.737-.33-.737-.737v-3.37c0-1.504.928-2.796 2.21-3.16v-.886c-.635-.164-1.104-.74-1.104-1.424zm-5.436 7.32c.398-.652.646-1.513.646-2.246 0-1.014-.436-1.392-1.474-1.392-1.037 0-1.473.378-1.473 1.392 0 .733.248 1.594.646 2.245.33.539.659.784.827.784.17 0 .498-.245.828-.784zm-1.196-7.32c0-.003 0-.002.004-.002h.73c.004 0 .003 0 .003.002V8.472c0 .003-.001.002-.004.002h-.73c-.004 0-.003-.001-.003-.002v3.688zm8.105 0c0-.003.001-.002.004-.002h.73c.004 0 .003 0 .003.002V8.472c0 .003 0 .002-.004.002h-.73c-.004 0-.003-.001-.003-.002v3.688z" transform="translate(-27 -273) translate(20 267)"/>
            </g>
        </g>
    </g>
</svg>
