<svg xmlns="http://www.w3.org/2000/svg" width="25" height="19" viewBox="0 0 25 19">
    <g fill="none" fill-rule="evenodd">
        <g fill="#FFF" stroke="#232429">
            <path d="M47.91 309.09H29.09v2.092h18.82v-2.091zm0 5.228H29.09v7.318h18.82v-7.318zM27 309.093c0-1.156.937-2.093 2.092-2.093h18.816c1.155 0 2.092.935 2.092 2.093v12.541c0 1.156-.937 2.093-2.092 2.093H29.092c-1.155 0-2.092-.935-2.092-2.093v-12.54zm14.636 8.362c0-.578.464-1.046 1.045-1.046h2.093c.577 0 1.044.464 1.044 1.046 0 .577-.463 1.045-1.044 1.045H42.68c-.577 0-1.045-.464-1.045-1.045z" transform="translate(-26 -306)"/>
        </g>
    </g>
</svg>
