<svg xmlns="http://www.w3.org/2000/svg" width="24" height="26" viewBox="0 0 24 26">
    <g fill="none" fill-rule="evenodd">
        <g fill="#FFF" stroke="#232429">
            <path d="M41.968 532.877l.874.51s2.609-.455 2.76-.469c.79-.097 1.64.327 2.037 1.015l1.095 1.896c.399.691.342 1.643-.12 2.245-.107.15-1.803 2.182-1.803 2.182s.01.15.01.506c0 .172-.014.514-.014.514s1.7 2.024 1.788 2.148c.478.635.536 1.584.139 2.271l-1.095 1.897c-.399.69-1.252 1.117-2.012 1.017l-2.799-.473-.86.507s-.912 2.488-.976 2.626c-.31.732-1.103 1.256-1.897 1.256h-2.19c-.798 0-1.593-.526-1.884-1.227-.077-.168-.992-2.664-.992-2.664l-.876-.5s-2.604.459-2.756.473c-.789.097-1.639-.327-2.036-1.015l-1.095-1.897c-.399-.69-.341-1.642.12-2.245.107-.15 1.805-2.183 1.805-2.183s-.013-.148-.013-.505c0-.168.014-.503.014-.503s-1.699-2.034-1.787-2.158c-.478-.636-.536-1.584-.139-2.272l1.095-1.896c.399-.69 1.252-1.117 2.004-1.019.184.018 2.813.476 2.813.476l.864-.513s.902-2.483.966-2.62c.31-.733 1.103-1.257 1.897-1.257h2.19c.797 0 1.593.525 1.884 1.226.077.168.99 2.651.99 2.651zm-1.94 1.715l-.157-.528c-.23-.769-.881-2.511-.95-2.674-.04-.095-1.801-.095-1.841 0-.07.163-.72 1.905-.95 2.674l-.158.528-.508.217c-.48.204-.932.466-1.349.78l-.441.332-.538-.128c-.78-.185-2.617-.493-2.793-.514-.102-.012-.982 1.512-.92 1.594.107.142 1.29 1.578 1.842 2.161l.378.4-.066.548c-.03.257-.046.518-.046.78 0 .263.015.524.046.781l.066.547-.378.4c-.551.584-1.735 2.02-1.842 2.162-.062.082.818 1.606.92 1.594.176-.022 2.012-.33 2.793-.515l.538-.127.441.332c.417.313.87.575 1.35.78l.507.216.158.53c.23.768.88 2.51.95 2.673.04.095 1.8.095 1.84 0 .07-.163.721-1.905.95-2.674l.159-.529.507-.216c.48-.205.932-.467 1.35-.78l.44-.333.538.128c.78.186 2.617.493 2.793.515.06.007.982-1.512.92-1.594-.107-.142-1.29-1.578-1.842-2.162l-.378-.4.066-.547c.03-.258.046-.518.046-.78 0-.263-.015-.524-.046-.781l-.066-.547.378-.4c.551-.584 1.735-2.02 1.842-2.162.062-.082-.818-1.606-.92-1.594-.176.022-2.012.33-2.793.515l-.537.127-.442-.332c-.417-.313-.87-.576-1.349-.78l-.507-.217zm-2.028 9.7c-1.949 0-3.529-1.58-3.529-3.53 0-1.949 1.58-3.528 3.529-3.528 1.949 0 3.529 1.58 3.529 3.528 0 1.95-1.58 3.53-3.529 3.53zm0-2.353c.65 0 1.176-.527 1.176-1.177s-.526-1.176-1.176-1.176c-.65 0-1.176.527-1.176 1.176 0 .65.526 1.177 1.176 1.177z" transform="translate(-26 -528)"/>
        </g>
    </g>
</svg>
