<svg xmlns="http://www.w3.org/2000/svg" width="20" height="20" viewBox="0 0 20 20">
    <g fill="none" fill-rule="evenodd">
        <g fill="#00C1BA" fill-rule="nonzero">
            <path d="M344.99 138c-5.508 0-9.99 4.482-9.99 9.99s4.482 9.99 9.99 9.99 9.99-4.482 9.99-9.99-4.482-9.99-9.99-9.99zm5.583 7.36l-6.385 6.335c-.375.376-.976.4-1.377.025l-3.38-3.08c-.4-.375-.425-1-.075-1.401.376-.401 1.002-.426 1.402-.05l2.68 2.453 5.708-5.708c.4-.4 1.026-.4 1.427 0 .4.4.4 1.026 0 1.427z" transform="translate(-335 -138)"/>
        </g>
    </g>
</svg>
