<svg xmlns="http://www.w3.org/2000/svg" width="22" height="22" viewBox="0 0 22 22">
    <g fill="none" fill-rule="evenodd">
        <g fill="#333" fill-rule="nonzero">
            <g>
                <path d="M18.778 3.222C16.701 1.144 13.938 0 11 0 8.062 0 5.3 1.144 3.222 3.222 1.144 5.299 0 8.062 0 11c0 2.938 1.144 5.7 3.222 7.778C5.299 20.856 8.062 22 11 22c2.938 0 5.7-1.144 7.778-3.222C20.856 16.701 22 13.938 22 11c0-2.938-1.144-5.7-3.222-7.778zm-.91.91c.588.587 1.09 1.237 1.502 1.933h-4.276c-.188-.95-.432-1.832-.728-2.615-.275-.73-.589-1.35-.933-1.857 1.664.427 3.19 1.293 4.435 2.539zM14.266 11c0 1.248-.085 2.46-.246 3.588H7.98c-.161-1.128-.245-2.34-.245-3.588 0-1.27.087-2.502.254-3.648h6.022c.167 1.146.255 2.378.255 3.648zM11 1.287c.735 0 1.544.978 2.162 2.617.246.651.453 1.378.62 2.161H8.218c.167-.783.374-1.51.62-2.161.619-1.639 1.427-2.617 2.162-2.617zM4.132 4.132C5.378 2.886 6.903 2.02 8.567 1.593c-.344.506-.658 1.127-.933 1.857-.296.783-.54 1.665-.728 2.615H2.63c.412-.696.914-1.346 1.502-1.933zM1.287 11c0-1.27.243-2.504.706-3.648H6.69C6.53 8.508 6.448 9.738 6.448 11c0 1.24.08 2.45.234 3.588H1.969c-.447-1.126-.682-2.34-.682-3.588zm2.845 6.868c-.604-.604-1.118-1.274-1.537-1.993h4.299c.19.974.438 1.876.74 2.675.275.73.589 1.35.933 1.857-1.664-.427-3.189-1.293-4.435-2.539zM11 20.713c-.735 0-1.543-.978-2.162-2.617-.252-.667-.464-1.415-.632-2.22h5.588c-.168.805-.38 1.553-.632 2.22-.618 1.639-1.427 2.617-2.162 2.617zm6.868-2.845c-1.246 1.246-2.771 2.112-4.435 2.539.344-.506.658-1.127.933-1.857.302-.8.55-1.701.74-2.675h4.299c-.419.72-.933 1.39-1.537 1.993zm-2.55-3.28c.154-1.138.234-2.348.234-3.588 0-1.262-.083-2.492-.242-3.648h4.697c.463 1.144.706 2.377.706 3.648 0 1.249-.235 2.462-.682 3.588h-4.713z" transform="translate(-20 -136) translate(20 136)"/>
            </g>
        </g>
    </g>
</svg>
