<svg xmlns="http://www.w3.org/2000/svg" width="17" height="22" viewBox="0 0 17 22">
    <g fill="none" fill-rule="evenodd">
        <g fill="#FFF">
            <g>
                <path d="M27.438 16.125H22.12l.005 17h12.748l.002-9.563H28.5c-.587 0-1.063-.475-1.063-1.062v-6.375zm2.125 5.313h5.312l-5.313-5.313v5.313zM22.12 14h7.764c.293 0 .7.17.904.373l5.84 5.841c.205.206.372.616.372.904v12.008c0 1.173-.95 2.124-2.127 2.124H22.127c-1.175 0-2.127-.954-2.127-2.125v-17c0-1.174.952-2.125 2.12-2.125zm1.067 15.938c0-.587.478-1.063 1.058-1.063h8.51c.584 0 1.057.472 1.057 1.063 0 .586-.477 1.062-1.057 1.062h-8.51c-.584 0-1.058-.472-1.058-1.063zm0-3.188c0-.587.48-1.063 1.068-1.063h4.24c.59 0 1.067.472 1.067 1.063 0 .587-.479 1.063-1.067 1.063h-4.24c-.59 0-1.067-.472-1.067-1.063z" transform="translate(-40 -856) translate(20 842)"/>
            </g>
        </g>
    </g>
</svg>
