<svg xmlns="http://www.w3.org/2000/svg" width="190" height="69" viewBox="0 0 190 69">
    <g fill="none" fill-rule="evenodd">
        <g fill-rule="nonzero">
            <g>
                <path fill="#FFF" d="M81.94 49.83L81.94 46.36 95.45 29.73 82.04 29.73 82.04 25.32 102.06 25.32 102.06 28.78 88.55 45.4 102.2 45.4 102.2 49.81 81.94 49.81zM110.82 50.15c-1.96 0-3.56-.52-4.79-1.56-1.24-1.04-1.85-2.39-1.85-4.04 0-1.73.67-3.08 1.99-4.06 1.33-.98 3.16-1.47 5.5-1.47.75 0 1.49.06 2.24.18.75.12 1.48.29 2.21.52v-1.29c0-1.05-.33-1.84-.98-2.38-.65-.54-1.61-.8-2.87-.8-.77 0-1.6.12-2.5.37-.9.25-1.92.62-3.06 1.14l-1.75-3.54c1.42-.65 2.81-1.14 4.15-1.47 1.34-.33 2.67-.49 3.97-.49 2.45 0 4.36.59 5.72 1.77 1.37 1.18 2.05 2.84 2.05 4.99v11.83h-4.72v-1.26c-.77.54-1.58.93-2.43 1.19-.88.24-1.83.37-2.88.37zm-2.07-5.71c0 .7.3 1.25.91 1.66.61.41 1.41.61 2.42.61.79 0 1.52-.1 2.19-.3.67-.2 1.28-.48 1.84-.86v-2.73c-.58-.23-1.2-.4-1.84-.51-.64-.1-1.31-.16-2.01-.16-1.1 0-1.95.2-2.57.61-.63.43-.94.98-.94 1.68zM143.65 40.73c0 1.31-.24 2.53-.73 3.67-.49 1.14-1.15 2.13-2 2.97-.84.84-1.84 1.5-2.99 1.98-1.16.48-2.39.72-3.69.72-.91 0-1.8-.13-2.66-.38-.86-.26-1.66-.62-2.38-1.08v1.22h-4.73v-24.5l4.79-1.05v8.75c.72-.54 1.52-.95 2.4-1.24.88-.29 1.78-.44 2.71-.44 1.28 0 2.49.25 3.62.74s2.12 1.16 2.96 2c.84.84 1.5 1.83 1.98 2.97.48 1.14.72 2.37.72 3.67zm-10.05-5.28c-.86 0-1.67.15-2.42.44-.75.29-1.39.72-1.92 1.28v7.17c.51.51 1.15.92 1.91 1.23.76.3 1.57.45 2.43.45 1.49 0 2.75-.51 3.78-1.52 1.03-1.01 1.54-2.27 1.54-3.76 0-1.49-.52-2.75-1.56-3.76-1.03-1.03-2.29-1.53-3.76-1.53zM165.77 40.73c0 1.31-.24 2.53-.73 3.67-.49 1.14-1.15 2.13-2 2.97-.84.84-1.84 1.5-2.99 1.98-1.16.48-2.39.72-3.69.72-.91 0-1.8-.13-2.66-.38-.86-.26-1.66-.62-2.38-1.08v1.22h-4.73v-24.5l4.79-1.05v8.75c.72-.54 1.52-.95 2.4-1.24.88-.29 1.78-.44 2.71-.44 1.28 0 2.49.25 3.62.74s2.12 1.16 2.96 2c.84.84 1.5 1.83 1.98 2.97.48 1.14.72 2.37.72 3.67zm-10.05-5.28c-.86 0-1.67.15-2.42.44-.75.29-1.39.72-1.92 1.28v7.17c.51.51 1.15.92 1.91 1.23.76.3 1.57.45 2.43.45 1.49 0 2.75-.51 3.78-1.52 1.03-1.01 1.54-2.27 1.54-3.76 0-1.49-.52-2.75-1.56-3.76-1.03-1.03-2.29-1.53-3.76-1.53z" transform="translate(-93 -372) translate(93 372)"/>
                <path fill="#FC5F4D" d="M171.09 29.43c-.75 0-1.39-.27-1.92-.8-.54-.54-.81-1.18-.81-1.92s.27-1.39.81-1.92c.54-.54 1.18-.81 1.92-.81.75 0 1.39.27 1.92.81.54.54.81 1.18.81 1.92s-.27 1.39-.81 1.92-1.18.8-1.92.8z" transform="translate(-93 -372) translate(93 372)"/>
                <path fill="#FFF" d="M168.71 31.6H173.5V49.84H168.71zM179.73 44.69v-9.07h-3.75v-4.03h3.75v-4.65l4.79-1.08v5.74h5.18v4.03h-5.18v8.08c0 .86.19 1.47.56 1.82.37.35 1.03.52 1.96.52.44 0 .86-.03 1.26-.09s.83-.17 1.29-.33v3.92c-.51.16-1.13.3-1.85.4-.72.11-1.34.16-1.85.16-2.03 0-3.56-.46-4.6-1.38-1.04-.92-1.56-2.27-1.56-4.04z" transform="translate(-93 -372) translate(93 372)"/>
                <g fill="#44BEB9">
                    <path d="M11.95 47.76c7.37-.05 14.74.68 21.96 2.18 8.16 2.21 16.07 5.22 23.63 9-3.04 3.02-6.63 5.44-10.57 7.12-17.22 7.35-37.14-.64-44.49-17.86 3.14-.3 6.3-.44 9.47-.44zM7.02 13.95C18.42-.64 39.42-3.39 54.19 7.79c14.92 11.3 17.87 32.55 6.57 47.48-5.06-4.34-10.6-8.09-16.51-11.17-.16-.08-.27-.24-.31-.42-.06-.33.15-.65.48-.71 6.7-1.32 13.23-5.11 16.72-7.4.24-.16.46-.37.62-.61.68-1.02.42-2.4-.6-3.09-5.18-3.51-18.08-11.1-38.15-15.51-5.28-1.14-10.62-1.95-15.99-2.41zm44.53 16.77c1.08-.11 2.05.68 2.16 1.76.11 1.08-.68 2.05-1.76 2.16-1.09.11-2.05-.68-2.16-1.76-.11-1.08.68-2.05 1.76-2.16zM3.03 20.37c17.43 3.32 24.96 7.33 23.68 8.57-.12.11-.28.16-.44.15-1.92-.14-3.85-.22-5.8-.24-1.03-.03-2.06-.05-3.1-.05h-.32c-5.69-.07-11.38.43-16.98 1.5.47-3.44 1.47-6.79 2.96-9.93z" transform="translate(-93 -372) translate(93 372)"/>
                </g>
            </g>
        </g>
    </g>
</svg>
