<svg xmlns="http://www.w3.org/2000/svg" width="150" height="55" viewBox="0 0 150 55">
    <g fill="none" fill-rule="evenodd">
        <g fill-rule="nonzero">
            <g>
                <path fill="#333" d="M64.689 39.339L64.689 36.6 75.355 23.471 64.768 23.471 64.768 19.989 80.574 19.989 80.574 22.721 69.908 35.842 80.684 35.842 80.684 39.324 64.689 39.324zM87.49 39.592c-1.548 0-2.811-.41-3.782-1.231-.98-.822-1.46-1.887-1.46-3.19 0-1.366.528-2.432 1.57-3.205 1.05-.774 2.495-1.16 4.343-1.16.592 0 1.176.047 1.768.141.592.095 1.168.23 1.745.41V30.34c0-.828-.26-1.452-.774-1.878-.513-.427-1.271-.632-2.266-.632-.608 0-1.263.095-1.973.292-.711.197-1.516.49-2.416.9l-1.382-2.795c1.121-.513 2.219-.9 3.276-1.16 1.058-.26 2.108-.387 3.135-.387 1.934 0 3.442.466 4.515 1.397 1.082.932 1.619 2.242 1.619 3.94v9.34h-3.726v-.995c-.608.426-1.248.734-1.919.939-.695.19-1.445.292-2.274.292zm-1.635-4.508c0 .553.237.987.719 1.31.481.324 1.113.482 1.91.482.624 0 1.2-.079 1.73-.237.528-.157 1.01-.378 1.452-.678v-2.156c-.458-.181-.948-.316-1.453-.402-.505-.08-1.034-.127-1.587-.127-.868 0-1.54.158-2.029.482-.497.34-.742.774-.742 1.326zM113.408 32.155c0 1.034-.19 1.998-.576 2.898-.387.9-.908 1.681-1.58 2.344-.663.664-1.452 1.185-2.36 1.564-.916.378-1.887.568-2.913.568-.718 0-1.421-.103-2.1-.3-.679-.205-1.31-.49-1.879-.853v.963h-3.734V19.997l3.781-.829v6.908c.569-.426 1.2-.75 1.895-.979.695-.229 1.405-.347 2.14-.347 1.01 0 1.965.197 2.857.584.893.387 1.674.916 2.337 1.58.663.662 1.185 1.444 1.563 2.344.38.9.569 1.87.569 2.897zm-7.934-4.168c-.68 0-1.319.118-1.91.347-.593.23-1.098.569-1.517 1.01v5.661c.403.403.908.727 1.508.971.6.237 1.24.356 1.919.356 1.176 0 2.17-.403 2.984-1.2.813-.798 1.216-1.793 1.216-2.969s-.41-2.17-1.232-2.968c-.813-.813-1.808-1.208-2.968-1.208zM130.871 32.155c0 1.034-.19 1.998-.576 2.898-.387.9-.908 1.681-1.58 2.344-.662.664-1.452 1.185-2.36 1.564-.916.378-1.887.568-2.913.568-.718 0-1.42-.103-2.1-.3-.679-.205-1.31-.49-1.879-.853v.963h-3.734V19.997l3.782-.829v6.908c.568-.426 1.2-.75 1.894-.979.695-.229 1.406-.347 2.14-.347 1.01 0 1.966.197 2.858.584.892.387 1.673.916 2.336 1.58.664.662 1.185 1.444 1.564 2.344.379.9.568 1.87.568 2.897zm-7.934-4.168c-.68 0-1.319.118-1.91.347-.593.23-1.098.569-1.516 1.01v5.661c.402.403.907.727 1.507.971.6.237 1.24.356 1.919.356 1.176 0 2.17-.403 2.984-1.2.813-.798 1.216-1.793 1.216-2.969s-.41-2.17-1.232-2.968c-.813-.813-1.808-1.208-2.968-1.208z" transform="translate(-113 -60) translate(113 60)"/>
                <path fill="#FC5F4D" d="M135.071 23.234c-.592 0-1.097-.213-1.516-.631-.426-.427-.64-.932-.64-1.516s.214-1.098.64-1.516c.427-.426.932-.64 1.516-.64.592 0 1.097.214 1.516.64.426.426.64.932.64 1.516s-.214 1.097-.64 1.516c-.426.418-.932.631-1.516.631z" transform="translate(-113 -60) translate(113 60)"/>
                <path fill="#333" d="M133.192 24.947H136.97400000000002V39.347H133.192zM141.892 35.282v-7.16h-2.96v-3.183h2.96v-3.67l3.782-.853v4.531h4.09v3.182h-4.09v6.379c0 .679.15 1.16.442 1.437.292.276.813.41 1.547.41.348 0 .68-.023.995-.07.316-.048.655-.135 1.018-.261v3.094c-.402.127-.892.237-1.46.316-.569.087-1.058.127-1.46.127-1.603 0-2.811-.364-3.632-1.09-.821-.726-1.232-1.792-1.232-3.19z" transform="translate(-113 -60) translate(113 60)"/>
                <g fill="#44BEB9">
                    <path d="M9.434 37.705c5.819-.04 11.637.537 17.337 1.721 6.442 1.745 12.687 4.121 18.655 7.106-2.4 2.384-5.234 4.294-8.344 5.62-13.595 5.803-29.321-.505-35.124-14.1 2.479-.236 4.974-.347 7.476-.347zM5.542 11.013c9-11.518 25.58-13.69 37.24-4.863 11.779 8.921 14.107 25.697 5.186 37.484-3.994-3.426-8.368-6.387-13.034-8.818-.126-.063-.213-.19-.245-.332-.047-.26.119-.513.38-.56 5.289-1.042 10.444-4.035 13.2-5.842.189-.127.363-.293.489-.482.537-.805.331-1.895-.474-2.44-4.09-2.77-14.273-8.763-30.118-12.244-4.169-.9-8.384-1.54-12.624-1.903zm35.155 13.24c.853-.087 1.619.536 1.706 1.39.086.852-.537 1.618-1.39 1.704-.86.087-1.618-.536-1.705-1.39-.087-.852.537-1.618 1.39-1.704zM2.392 16.082c13.76 2.62 19.705 5.786 18.695 6.765-.095.087-.221.127-.348.119-1.515-.11-3.039-.174-4.578-.19-.814-.023-1.627-.04-2.448-.04h-.252c-4.493-.054-8.985.34-13.406 1.185.371-2.716 1.16-5.36 2.337-7.84z" transform="translate(-113 -60) translate(113 60)"/>
                </g>
            </g>
        </g>
    </g>
</svg>
