<svg version="1.1" preserveAspectRatio="none" xmlns="http://www.w3.org/2000/svg" width="500" height="500" viewBox="0 0 500 500"><rect width="100%" height="100%" fill="#F7F7F7" fill-opacity="1"/><svg viewBox="1254.4902 805.6004 380.9746 405.7015" width="312.7041477539521" height="333" x="93.6479px" y="83.5px" xmlns="http://www.w3.org/2000/svg" xmlns:xlink="http://www.w3.org/1999/xlink" preserveAspectRatio="none"><defs></defs><style>.companyName {fill:#2B2B2B;fill-opacity:1;}.icon1 {fill:#2B2B2B;fill-opacity:1;}.icon2 {fill:#59C65B;fill-opacity:1;}.icon3 {fill:#6D6D6D;fill-opacity:1;}.icon3-str {stroke:#6D6D6D;stroke-opacity:1;}</style><g opacity="1" transform="rotate(0 1349.7338 805.6004)">
<svg width="190.4873" height="217.7015" x="1349.7338" y="805.6004" version="1.1" preserveAspectRatio="none" viewBox="30.000905990600586 19.999828338623047 139.99896240234375 160.00013732910156">
  <g transform="matrix(1 0 0 1 0 0)" ><g><path d="M155.314 148.954c-.398-1.605-1.895-2.729-3.215-3.576-1.622-1.041-3.415-1.799-5.251-2.374-4.145-1.297-8.545-1.778-12.833-2.369a377.793 377.793 0 0 0-28.611-2.845 367.585 367.585 0 0 0-29.093-.624c-4.68.086-9.344.264-13.979.954-2.278.339-4.551.739-6.814 1.17-1.739.331-3.48.724-5.119 1.405-1.006.418-1.943.947-2.775 1.615a50.081 50.081 0 0 0-10.347 3.247c-1.809.795-3.849 1.626-5.408 2.857-1.164.919-1.575 2.27-.958 3.648.675 1.508 2.224 2.258 3.724 2.732 1.945.614 3.975 1.005 5.994 1.281 4.334.593 8.723.56 13.083.322 8.881-.483 17.842-1.856 26.722-.621 4.509.627 8.833 2.27 13.409 2.432 2.403.085 4.81-.099 7.21.074 2.403.174 4.758.706 7.111 1.195 2.151.448 4.315.863 6.515.972 2.395.119 4.793-.087 7.166-.407 4.612-.622 9.198-1.491 13.788-2.261 4.169-.699 8.372-1.411 12.361-2.85 1.875-.676 3.718-1.506 5.403-2.574 1.221-.77 2.304-1.84 1.917-3.403z" data-color="1" class="icon1"></path><path d="M115.638 95.472s3.531-1.267 3.672-1.326c.14-.059 17.247 5.48 17.247 5.48l11.873-5.48 1.891 1.267s-13.395 9.203-15.219 9.025c-1.825-.179-19.464-8.966-19.464-8.966z" data-color="1" class="icon1"></path><path d="M155.314 148.954c-.398-1.605-1.895-2.729-3.215-3.576-1.622-1.041-3.415-1.799-5.251-2.374-4.145-1.297-8.545-1.778-12.833-2.369a377.793 377.793 0 0 0-28.611-2.845 367.585 367.585 0 0 0-29.093-.624c-4.68.086-9.344.264-13.979.954-2.278.339-4.551.739-6.814 1.17-1.739.331-3.48.724-5.119 1.405-1.006.418-1.943.947-2.775 1.615a50.081 50.081 0 0 0-10.347 3.247c-1.809.795-3.849 1.626-5.408 2.857-1.164.919-1.575 2.27-.958 3.648.675 1.508 2.224 2.258 3.724 2.732 1.945.614 3.975 1.005 5.994 1.281 4.334.593 8.723.56 13.083.322 8.881-.483 17.842-1.856 26.722-.621 4.509.627 8.833 2.27 13.409 2.432 2.403.085 4.81-.099 7.21.074 2.403.174 4.758.706 7.111 1.195 2.151.448 4.315.863 6.515.972 2.395.119 4.793-.087 7.166-.407 4.612-.622 9.198-1.491 13.788-2.261 4.169-.699 8.372-1.411 12.361-2.85 1.875-.676 3.718-1.506 5.403-2.574 1.221-.77 2.304-1.84 1.917-3.403z" opacity=".05"></path><path d="M58.338 50.717c-.567-2.346-1.632-4.6-1.803-7.011-.314-4.411 2.398-8.777 1.427-13.092-.468-2.083-1.754-3.886-3.147-5.508-1.373-1.599-2.909-3.107-4.781-4.081-1.871-.974-4.126-1.366-6.122-.679-5.089 1.752-4.455 8.739-2.992 12.706.944 2.561 2.182 5.067 2.461 7.781.31 3.02-.598 6.068-.277 9.087.435 4.083 3.051 7.6 5.912 10.555.688.711 1.435 1.426 2.38 1.722 1.874.586 3.856-.674 5.064-2.217a10.626 10.626 0 0 0 2.173-7.614 12.768 12.768 0 0 0-.295-1.649z" data-color="2" class="icon2"></path><path d="M79.217 41.943c-1.697-1.182-3.945-1.586-5.829-.754-2.651 1.171-3.9 4.223-4.387 7.072-.486 2.849-.491 5.851-1.757 8.451-1.114 2.288-3.111 4.029-4.179 6.339-1.206 2.61-1.02 5.823-1.255 8.634-.056.67-.107 1.372.159 1.989.661 1.532 2.832 1.687 4.404 1.115 2.259-.822 4.121-2.667 4.957-4.914.705-1.893.699-3.983 1.323-5.903 1.589-4.889 6.88-7.777 8.803-12.545 1.04-2.578.925-5.696-.689-7.962a6.367 6.367 0 0 0-1.55-1.522z" data-color="2" class="icon2"></path><path d="M47.685 75.58c-.379-2.618-1.14-5.194-2.136-7.65-1.664-4.102-3.969-7.911-6.33-11.659-.782-1.241-1.651-2.547-3.004-3.122-2.618-1.111-5.387 1.13-5.985 3.587-.786 3.231.58 6.721 2.132 9.506 1.677 3.009 3.824 5.786 5.026 9.013 1.005 2.698 1.343 5.69 2.938 8.09 1.112 1.674 3.231 3.02 5.09 2.246 1.73-.721 2.329-2.85 2.471-4.714a24.32 24.32 0 0 0-.202-5.297z" data-color="2" class="icon2"></path><path d="M84.107 86.962c-.094-.974-.413-1.894-1.252-2.317-1.145-.577-2.481.166-3.582.821-2.815 1.675-5.883 2.911-8.623 4.704-4.144 2.712-7.521 7.535-6.731 12.69.098.641.309 1.341.874 1.663.357.203.793.213 1.202.173 4.371-.424 6.798-5.376 10.812-7.152 1.46-.646 3.123-.863 4.43-1.779 2.282-1.598 2.748-4.731 2.889-7.507a9.08 9.08 0 0 0-.019-1.296z" data-color="2" class="icon2"></path><path d="M56.135 118.371a.41.41 0 0 1-.405-.344c-.01-.064-1.092-6.489-6.798-16.098-2.558-4.308-3.953-10.11-3.927-16.339.027-6.673-8.464-22.894-8.55-23.057a.411.411 0 0 1 .727-.38c.354.673 8.672 16.565 8.644 23.44-.025 6.083 1.329 11.736 3.812 15.919 5.794 9.759 6.86 16.12 6.902 16.386a.41.41 0 0 1-.405.473z" data-color="2" class="icon2"></path><path d="M57.588 121.772a.41.41 0 0 1-.407-.465c.003-.021.303-2.171 1.113-5.8.812-3.634 2.039-9.126 5.871-12.909 3.685-3.638 9.45-9.652 9.507-9.712a.411.411 0 0 1 .58-.013c.164.156.17.415.014.578-.058.06-5.831 6.082-9.523 9.728-3.661 3.614-4.856 8.965-5.647 12.506-.803 3.592-1.098 5.712-1.101 5.733a.412.412 0 0 1-.407.354z" data-color="2" class="icon2"></path><path d="M59.475 121.772a.41.41 0 0 1-.392-.288c-.018-.057-1.762-5.747-1.906-12.098-.119-5.224.571-10.545 1.238-15.691l.083-.644c.422-3.262.882-6.18 1.405-8.919.428-2.241 1.332-4.373 2.206-6.435.405-.955.824-1.943 1.183-2.918.834-2.257 1.445-4.645 2.037-6.955.236-.922.472-1.842.721-2.757 1.602-5.871 6.689-12.073 6.905-12.334a.412.412 0 0 1 .578-.056c.175.144.2.401.056.576-.052.063-5.192 6.329-6.747 12.029-.248.91-.483 1.827-.718 2.744-.596 2.329-1.213 4.738-2.061 7.035-.367.993-.789 1.99-1.198 2.954-.857 2.023-1.743 4.114-2.155 6.27a149 149 0 0 0-1.397 8.871l-.084.644c-.663 5.116-1.349 10.406-1.231 15.568.142 6.233 1.852 11.819 1.87 11.875a.407.407 0 0 1-.393.529z" data-color="2" class="icon2"></path><path d="M56.135 121.74h-.006a.41.41 0 0 1-.404-.415c.004-.273.418-27.376-1.024-37.254-.682-4.671-.922-9.59-1.133-13.929-.252-5.186-.47-9.665-1.315-12.856-1.698-6.411-2.299-13.189-1.607-18.133.692-4.948-1.665-8.158-1.688-8.19a.408.408 0 0 1 .082-.572.412.412 0 0 1 .574.081c.106.14 2.586 3.497 1.845 8.794-.677 4.842-.083 11.5 1.588 17.811.867 3.275 1.087 7.793 1.341 13.025.21 4.321.448 9.219 1.125 13.851 1.452 9.943 1.038 37.112 1.033 37.385a.41.41 0 0 1-.411.402z" data-color="2" class="icon2"></path><path d="M56.135 118.371a.41.41 0 0 1-.405-.344c-.01-.064-1.092-6.489-6.798-16.098-2.558-4.308-3.953-10.11-3.927-16.339.027-6.673-8.464-22.894-8.55-23.057a.411.411 0 0 1 .727-.38c.354.673 8.672 16.565 8.644 23.44-.025 6.083 1.329 11.736 3.812 15.919 5.794 9.759 6.86 16.12 6.902 16.386a.41.41 0 0 1-.405.473z" opacity=".33"></path><path d="M57.588 121.772a.41.41 0 0 1-.407-.465c.003-.021.303-2.171 1.113-5.8.812-3.634 2.039-9.126 5.871-12.909 3.685-3.638 9.45-9.652 9.507-9.712a.411.411 0 0 1 .58-.013c.164.156.17.415.014.578-.058.06-5.831 6.082-9.523 9.728-3.661 3.614-4.856 8.965-5.647 12.506-.803 3.592-1.098 5.712-1.101 5.733a.412.412 0 0 1-.407.354z" opacity=".33"></path><path d="M59.475 121.772a.41.41 0 0 1-.392-.288c-.018-.057-1.762-5.747-1.906-12.098-.119-5.224.571-10.545 1.238-15.691l.083-.644c.422-3.262.882-6.18 1.405-8.919.428-2.241 1.332-4.373 2.206-6.435.405-.955.824-1.943 1.183-2.918.834-2.257 1.445-4.645 2.037-6.955.236-.922.472-1.842.721-2.757 1.602-5.871 6.689-12.073 6.905-12.334a.412.412 0 0 1 .578-.056c.175.144.2.401.056.576-.052.063-5.192 6.329-6.747 12.029-.248.91-.483 1.827-.718 2.744-.596 2.329-1.213 4.738-2.061 7.035-.367.993-.789 1.99-1.198 2.954-.857 2.023-1.743 4.114-2.155 6.27a149 149 0 0 0-1.397 8.871l-.084.644c-.663 5.116-1.349 10.406-1.231 15.568.142 6.233 1.852 11.819 1.87 11.875a.407.407 0 0 1-.393.529z" opacity=".33"></path><path d="M56.135 121.74h-.006a.41.41 0 0 1-.404-.415c.004-.273.418-27.376-1.024-37.254-.682-4.671-.922-9.59-1.133-13.929-.252-5.186-.47-9.665-1.315-12.856-1.698-6.411-2.299-13.189-1.607-18.133.692-4.948-1.665-8.158-1.688-8.19a.408.408 0 0 1 .082-.572.412.412 0 0 1 .574.081c.106.14 2.586 3.497 1.845 8.794-.677 4.842-.083 11.5 1.588 17.811.867 3.275 1.087 7.793 1.341 13.025.21 4.321.448 9.219 1.125 13.851 1.452 9.943 1.038 37.112 1.033 37.385a.41.41 0 0 1-.411.402z" opacity=".33"></path><path d="M72.402 116.86v30.659a2.362 2.362 0 0 1-2.368 2.359H45.112a2.361 2.361 0 0 1-2.364-2.359V116.86a2.361 2.361 0 0 1 2.364-2.359h24.922a2.36 2.36 0 0 1 2.351 2.102c.012.085.017.171.017.257z" data-color="3" class="icon3"></path><path d="M72.402 116.86v30.659a2.362 2.362 0 0 1-2.368 2.359H45.112a2.361 2.361 0 0 1-2.364-2.359V116.86a2.361 2.361 0 0 1 2.364-2.359h24.922a2.36 2.36 0 0 1 2.351 2.102c.012.085.017.171.017.257z" opacity=".1"></path><path d="M56.418 114.501c-.098.119-.197.233-.295.352-1.65 1.95-3.23 4.003-5.023 5.831-1.724 1.762-3.714 2.776-5.926 3.819-.829.388-1.67.834-2.425 1.37v-.519c.205-.135.414-.266.624-.388 2.376-1.382 4.912-2.143 6.948-4.081 1.966-1.877 3.636-4.097 5.384-6.17.062-.069.119-.143.181-.213h.532z" data-color="4" class="icon1"></path><path d="M58.785 114.501c-.357.72-.685 1.456-.977 2.212-1.342 3.463-2.183 7.102-3.71 10.496-1.317 2.94-3.258 5.442-5.524 7.72-1.843 1.848-3.886 3.582-5.827 5.406v-.544c1.953-1.82 3.985-3.553 5.848-5.463 2.63-2.699 4.596-5.688 5.926-9.216 1.321-3.516 2.183-7.201 3.784-10.611h.48z" data-color="4" class="icon1"></path><path d="M72.402 116.86v.507c-2.171 3.067-4.945 5.622-7.867 7.99-3.324 2.695-6.705 5.205-10.333 7.479-3.886 2.433-6.911 5.765-9.861 9.229a87.139 87.139 0 0 0-1.592 1.922v-.65a97.626 97.626 0 0 1 2.154-2.547c1.494-1.709 3.02-3.414 4.67-4.976 1.531-1.456 3.258-2.609 5.048-3.717 3.894-2.412 7.526-5.226 11.018-8.178 2.585-2.192 4.871-4.576 6.746-7.315.012.084.017.17.017.256z" data-color="4" class="icon1"></path><path d="M72.402 126.224v.568c-1.383 1.574-2.77 3.149-4.157 4.723-2.667 3.018-5.253 6.182-8.318 8.816-3.718 3.193-9.02 5.704-12.344 9.548h-.476c.295-.36.603-.707.927-1.047 2.097-2.192 4.67-3.84 7.177-5.524 2.778-1.869 5.314-3.913 7.612-6.346 3.288-3.489 6.439-7.115 9.579-10.738z" data-color="4" class="icon1"></path><path d="M72.402 133.825v.765c-2.766 3.243-5.466 6.53-7.818 10.128a63.818 63.818 0 0 0-3.045 5.16h-.472c2.84-5.401 6.508-10.357 10.448-15.019.292-.347.587-.69.887-1.034z" data-color="4" class="icon1"></path><path d="m148.768 152.948 4.356 4.31-1.337 3.83-3.232 1.351-10.524-5.512 10.737-3.979z" data-color="3" class="icon3"></path><path d="M165.708 162.83c-3.789 2.367-10.626 6.515-11.589 6.586-.455.036-1.208-.395-1.984-.995-.874-.675-1.778-1.559-2.327-2.225-1.039-1.257-1.302-2.736-1.783-3.513-.481-.777 1.707-2.039 2.639-3.109.927-1.075 1.689-3.482 2.46-3.628.771-.147 2.068.853 2.068.853s3.53-.466 6.708-.848c2.402-.293 4.6-.533 4.921-.484.74.111 2.821 2.096 3.12 2.785.295.691-.445 2.21-4.233 4.578z" data-color="5" class="icon2"></path><path d="M165.708 162.83c-3.789 2.367-10.626 6.515-11.589 6.586-.455.036-1.208-.395-1.984-.995 2.291-1.639 12.882-8.367 12.882-8.367s-2.028-2.669-3.116-4.104c2.402-.293 4.6-.533 4.921-.484.74.111 2.821 2.096 3.12 2.785.294.692-.446 2.211-4.234 4.579z" data-color="1" class="icon1"></path><path d="M156.662 157.889c-1.147 0-1.149 1.776 0 1.776 1.147 0 1.149-1.776 0-1.776z" data-color="1" class="icon1"></path><path d="M160.116 157.333c-1.147 0-1.149 1.777 0 1.777 1.147 0 1.149-1.777 0-1.777z" data-color="1" class="icon1"></path><path d="m114.437 158.866-5.877 4.598-3.651-1.792-.948-3.362 6.783-9.729 3.693 10.285z" data-color="3" class="icon3"></path><path d="M101.464 175.223c-1.892-4.037-5.184-11.308-5.136-12.269.02-.454.542-1.146 1.235-1.839.78-.781 1.771-1.567 2.502-2.027 1.379-.873 2.885-.951 3.718-1.331s1.821 1.939 2.772 2.991c.957 1.049 3.261 2.098 3.312 2.879.051.781-1.103 1.94-1.103 1.94s.031 3.548.021 6.738c-.003 2.412-.034 4.614-.122 4.925-.201.718-2.435 2.532-3.157 2.743-.727.206-2.149-.712-4.042-4.75z" data-color="5" class="icon2"></path><path d="M101.464 175.223c-1.892-4.037-5.184-11.308-5.136-12.269.02-.454.542-1.146 1.235-1.839 1.351 2.467 6.751 13.766 6.751 13.766s2.908-1.678 4.47-2.577c-.003 2.412-.034 4.614-.122 4.925-.201.718-2.435 2.532-3.157 2.743-.726.207-2.148-.711-4.041-4.749z" data-color="1" class="icon1"></path><path d="M107.497 166.885c.141-1.134-1.628-1.355-1.769-.218-.141 1.134 1.628 1.354 1.769.218z" data-color="1" class="icon1"></path><path d="M107.626 170.369c.141-1.134-1.628-1.355-1.769-.218-.142 1.134 1.627 1.355 1.769.218z" data-color="1" class="icon1"></path><path d="M156.662 157.889c-1.147 0-1.149 1.776 0 1.776 1.147 0 1.149-1.776 0-1.776z" opacity=".1"></path><path d="M160.116 157.333c-1.147 0-1.149 1.777 0 1.777 1.147 0 1.149-1.777 0-1.777z" opacity=".1"></path><path d="M107.497 166.885c.141-1.134-1.628-1.355-1.769-.218-.141 1.134 1.628 1.354 1.769.218z" opacity=".1"></path><path d="M107.626 170.369c.141-1.134-1.628-1.355-1.769-.218-.142 1.134 1.627 1.355 1.769.218z" opacity=".1"></path><path d="M121.95 101.651c.045.227-1.801 3.837-3.61 7.301l-.82 1.554a895.355 895.355 0 0 1-2.599 4.912l-5.353-2.656h-.004l-1.725-.857h-.004l-.686-.342-1.636-.813 2.612-6.609.664-1.688h.004l2.064-5.223.593-1.506 2.603-6.586c0 .004.004.004.004.009.103.16 1.573 2.429 3.218 4.996.245.382.495.773.74 1.159.651 1.017 1.297 2.039 1.877 2.953.263.413.508.804.735 1.164.771 1.242 1.301 2.117 1.323 2.232z" data-color="4" class="icon1"></path><path d="M99.332 123.043s22.246 1.777 31.904 5.626c9.658 3.849 6.24 10.752 4.16 13.444s-21.342 17.053-21.342 17.053-9.635-8.354-9.278-9.327c.358-.973 6.996-6.812 6.996-6.812l-15.375-14.283 2.935-5.701z" data-color="6" class="icon3"></path><path d="M70.32 139.328s2.526 9.771 8.469 11.695c5.943 1.925 14.418.592 17.61 0 3.191-.592 16.117-4.145 16.117-4.145s4.756 3.257 7.133 4.145c2.376.888 3.565 2.221 6.239 4.145 2.674 1.925 4.012 1.48 5.052 2.221 1.04.74 3.863 1.777 4.606 1.777.743 0 13.223-6.218 13.223-6.218s-16.343-17.765-26.15-22.058c-9.806-4.293-29.753-3.997-29.753-3.997L70.32 139.328z" data-color="6" class="icon3"></path><path d="M121.359 61.733a6.036 6.036 0 0 0 .075-2.002 5.795 5.795 0 0 0-.686-2.065c.612-2.148.844-4.439-.496-6.353-.46-.656-1.242-1.201-1.919-1.607-.625-.375-1.459-.349-2.024-.838-.696-.603-1.191-1.653-1.802-2.365-.866-1.009-2.275-1.568-3.613-1.355a3.352 3.352 0 0 0-1.813.903c-.552.539-.722 1.124-1.64.881-1.21-.32-2.284-1.058-3.532-1.342-1.223-.278-2.505-.341-3.733-.049-.79.187-1.926.527-2.392 1.236-.397.605-.629 1.37-1.379 1.674-1.007.409-2.203.4-3.238.825-.935.384-1.592 1.015-1.983 1.944-.494 1.174-.191 2.427-.398 3.647-.242 1.424-.83 2.736-.882 4.203-.04 1.135.212 2.221.561 3.294a45.978 45.978 0 0 1 1.358 5.083c.362 1.779 1.524 8.223 1.524 8.223s5.48-3.176 7.439-2.871c1.846.287 3.735.624 5.605.68 2.076.063 3.811-.606 5.695-1.383 1.007-.415 2.036-.629 3.061-.977.673-.228 1.272-.611 1.916-.897 1.127-.034 2.196-.522 2.86-1.471.357-.51.571-1.118.625-1.737.097-1.102-.542-1.974-.109-3.087.3-.768.748-1.359.92-2.194z" data-color="7" class="icon1"></path><path d="M94.098 66.269s-4.241 9.771-5.503 11.399c-1.263 1.628-6.686 5.303-6.686 5.303l14.783 5.504 6.76-2.295s-1.149-1.743-1.114-2.591c.034-.847 1.486-3.109 1.486-3.109l-9.726-14.211z" data-color="3" class="icon3"></path><path d="m117.547 69.545-.24.576a25.08 25.08 0 0 1-.394.89 39.282 39.282 0 0 1-1.81 3.561c-.063.106-.122.216-.185.326-.307.549-.598 1.11-.901 1.663-1.189 2.165-2.574 4.263-5.939 5.494-3.452 1.263-7.076.941-9.603-3.278-2.523-4.216-4.459-10.067-4.235-12.067.22-1.996 4.01-8.063 6.238-9.325 2.232-1.255 3.947-1.847 5.726-1.11 1.783.741 7.423 1.263 8.245 1.851.815.592 4.825 6.518 4.825 6.518.308.254-1.515 4.38-1.727 4.901z" data-color="3" class="icon3"></path><path d="M105.502 67.537c.159-.403.178-.83-.286-.959-.221-.061-.466.005-.654.127-.187.122-.326.294-.455.468-.194.261-.381.551-.366.865a.619.619 0 0 0 .41.561c.333.107.69-.103.915-.348a2.52 2.52 0 0 0 .436-.714z" data-color="5" class="icon2"></path><path d="M114.825 72.085c.147-.374.165-.771-.266-.891-.205-.057-.433.004-.607.118-.174.113-.303.273-.422.434-.18.242-.354.512-.34.804.01.22.151.446.381.521.309.1.64-.096.85-.323a2.35 2.35 0 0 0 .404-.663z" data-color="5" class="icon2"></path><path d="M105.502 67.537c.159-.403.178-.83-.286-.959-.221-.061-.466.005-.654.127-.187.122-.326.294-.455.468-.194.261-.381.551-.366.865a.619.619 0 0 0 .41.561c.333.107.69-.103.915-.348a2.52 2.52 0 0 0 .436-.714z" opacity=".12"></path><path d="M114.825 72.085c.147-.374.165-.771-.266-.891-.205-.057-.433.004-.607.118-.174.113-.303.273-.422.434-.18.242-.354.512-.34.804.01.22.151.446.381.521.309.1.64-.096.85-.323a2.35 2.35 0 0 0 .404-.663z" opacity=".12"></path><path d="M108.157 76.379c-.412 0-.762-.113-.79-.122a.306.306 0 0 1-.194-.387.308.308 0 0 1 .388-.195c.009.003.909.282 1.212-.145.291-.411.577-2.173.688-3.188a.3.3 0 0 1 .339-.271c.169.018.291.17.272.338-.031.284-.32 2.8-.797 3.474-.278.394-.726.496-1.118.496z" opacity=".2"></path><path d="M102.912 75.01s.674 1.477 1.865 2.324c1.295.922 2.042 1.041 2.042 1.041s-1.8 1.127-3.207-.075c-1.408-1.201-.7-3.29-.7-3.29z" data-color="1" class="icon1"></path><path d="M102.266 82.558a.312.312 0 0 1-.119-.024c-.081-.034-1.989-.846-3.241-2.566-2.261-3.107-2.787-5.368-2.808-5.463a.308.308 0 0 1 .6-.134c.005.022.527 2.243 2.706 5.237 1.148 1.577 2.963 2.353 2.981 2.361a.306.306 0 0 1-.119.589z" opacity=".2"></path><path d="M107.616 65.138c-.533-.542-1.613-.985-2.068-1.078-.574-.117-1.433-.186-1.903.23-.085.075-.105.23-.018.314.35.335.842.339 1.274.492.427.151 2.97 1.989 3.024.664.008-.213-.114-.424-.309-.622z" data-color="7" class="icon1"></path><path d="M97.806 62.642s0-3.109-2.377-3.035c-2.377.074-2.749 5.033-2.377 6.514.371 1.48 1.634 2.147 1.634 2.147l3.12-5.626z" data-color="3" class="icon3"></path><path d="M93.903 66.37a.308.308 0 0 1-.303-.253c-.011-.063-.272-1.555-.004-2.813.155-.726.371-1.631.523-1.82a.31.31 0 0 1 .433-.047c.124.099.15.275.066.405-.018.036-.151.329-.42 1.589-.243 1.142.005 2.564.008 2.579a.306.306 0 0 1-.303.36z" opacity=".3"></path><path d="M116.508 69.43c-.383-.258-1.462-.711-2.224-.706-.276.004-.513.067-.66.222-.905.968 2.193 1.475 2.603 1.67.236.115.455.275.686.395.138-.293.267-.591.392-.888a3.79 3.79 0 0 0-.797-.693z" data-color="7" class="icon1"></path><path d="M119.642 65.373c-.549-2.51-2.046-4.779-3.573-6.811-1.458-1.939-3.7-2.734-5.973-3.37-2.297-.643-5.077-1.274-7.398-.438-1.132.407-2.215.875-3.37 1.226-1.154.351-2.253.736-3.232 1.452-.109-.121-.38-.073-.401.146-.108 1.125-.215 2.432.571 3.359.521.615 1.33.953 2.116.689.256-.086.44-.302.684-.395.598-.228 1.053-.178 1.675-.109.505.056.977.065 1.472-.068.652-.175 1.233-.525 1.77-.937.384.249.821.419 1.315.497.649.103 1.312.046 1.951-.094.72-.157 1.45-.621 2.166-.706.68-.08 1.219.537 1.802.784a5 5 0 0 0 1.338.354 4.909 4.909 0 0 0 2.669-.428c.747.545 1.335 1.302 1.939 2.004.832.967 1.692 1.906 1.894 3.209.043.276.454.165.429-.103.102-.033.185-.128.156-.261z" data-color="7" class="icon1"></path><path d="M112.634 95.433c-.143.48-.29.973-.446 1.474a232.829 232.829 0 0 1-1.524 4.823c-.178.555-.361 1.11-.544 1.652-1.061 3.18-2.073 6.009-2.657 7.368-.107.253-.214.524-.316.813-.067.195-.138.4-.205.608-.147.475-.294.982-.428 1.506-.464 1.785-.842 3.797-1.128 5.538-.08.497-.152.973-.218 1.412-.258 1.732-.392 2.945-.392 2.945s-3.031 5.592-6.971 6.48c-3.936.888-11.179 4.241-15.413 6.018-4.234 1.777-11.032 3.886-11.7 4.33-.669.444-.743 1.936-2.786 1.666-.944-.125-2.897-1.798-1.56-5.774.388-1.155.12-2.891.236-4.988.027-.453.067-.928.125-1.417a18.15 18.15 0 0 1 .53-2.7c.593-2.127.776-5.205.816-8.216.009-.457.013-.915.013-1.363 0-2.154-.049-4.197-.049-5.743 0-1.035-.013-2.429-.004-4.024 0-.422.004-.857.009-1.306.031-2.492.129-5.316.415-7.932.049-.462.107-.915.169-1.363.205-1.479.486-2.86.86-4.028.963-3.007 2.554-5.352 4.31-7.004.481-.462.976-.87 1.475-1.221a10.814 10.814 0 0 1 2.46-1.323c3.009-1.11 6.989-4.273 8.023-4.273 1.034 0 4.68 4.419 8.487 5.236 3.807.813 8.117-1.039 8.117-1.039 3.062.688 6.597 1.057 9.218 2.847.446.302.865.644 1.248 1.039a7.874 7.874 0 0 1 1.248 1.665c0 .004.004.004.004.009.192.392-.454 2.986-1.422 6.285z" data-color="4" class="icon1"></path><path d="M121.368 152.152a.305.305 0 0 1-.172-.053c-.027-.018-2.738-1.833-4.59-2.285-1.402-.343-2.424-1.568-3.035-2.3a5.57 5.57 0 0 0-.418-.47c-.554.097-4.202 1.094-6.458 1.725a.306.306 0 1 1-.166-.59c1.888-.528 6.317-1.755 6.673-1.755.259 0 .454.234.842.698.562.674 1.503 1.802 2.708 2.096 1.959.479 4.673 2.296 4.788 2.373a.306.306 0 0 1-.172.561z" opacity=".21"></path><path d="M106.127 96.842c-.654-.934-1.877-1.085-2.997-.179-1.192.964-1.206 2.43-1.608 3.792-.365 1.236-.762 2.461-1.054 3.718-1.954-.28-3.803-.13-5.752-.002-.05-1.549-.135-3.1-.414-4.627-.208-1.137-.483-2.724-1.577-3.393-.932-.57-2.042-.109-2.633.722-.787 1.108-.641 2.668-.637 3.948.007 2.069.096 4.139.271 6.201.148 1.746.227 3.631.818 5.298 1.137 3.207 4.435 3.846 7.527 3.551 1.424-.136 2.933-.533 4.001-1.538 1.027-.966 1.426-2.329 1.715-3.659.435-2.002 1.03-3.962 1.575-5.936.571-2.065 1.534-4.598 1.195-6.764a2.662 2.662 0 0 0-.43-1.132z" data-color="8" class="icon2"></path><path d="M94.72 108.673c0 .342-.154.619-.345.619-.19 0-.345-.277-.345-.619s.154-.619.345-.619c.191 0 .345.277.345.619z" data-color="4" class="icon1"></path><path d="M100.445 108.909c-.058.337-.257.585-.444.553-.188-.032-.293-.331-.236-.668.058-.337.257-.585.444-.553.188.032.294.331.236.668z" data-color="4" class="icon1"></path><path d="M98.466 111.545a.983.983 0 0 1-.818.659l.001-.007c-.021-.408-.02-.815-.008-1.223.228-.163.424-.469.431-.664.004-.126-.109-.226-.23-.229-.21-.005-1.495-.191-1.219.372.107.219.315.487.557.589-.01.381-.011.762.009 1.143-.418-.087-.816-.354-.999-.729-.13-.265-.526-.033-.397.231.604 1.235 2.598 1.374 3.117-.021.103-.276-.341-.395-.444-.121z" data-color="4" class="icon1"></path><path d="M135.787 140.575a.31.31 0 0 1-.222-.094c-.07-.073-7.103-7.288-13.424-9.603-6.31-2.31-16.065-.74-16.162-.723a.307.307 0 1 1-.101-.605c.406-.067 10.011-1.614 16.476.752 6.455 2.363 13.584 9.679 13.655 9.753a.307.307 0 0 1-.222.52z" opacity=".21"></path><path d="M130.976 156.329a.307.307 0 0 1-.056-.608l8.803-1.631a.309.309 0 0 1 .359.246.305.305 0 0 1-.246.357l-8.803 1.631a.275.275 0 0 1-.057.005z" opacity=".21"></path><path d="M115.638 95.472s3.531-1.267 3.672-1.326c.14-.059 17.247 5.48 17.247 5.48l11.873-5.48 1.891 1.267s-13.395 9.203-15.219 9.025c-1.825-.179-19.464-8.966-19.464-8.966z" opacity=".1"></path><path d="M136.932 101.904s-21.294-7.204-21.611-7.046c-.318.158-9.392 28.37-9.392 28.37l18.129 6.72 12.874-28.044z" data-color="7" class="icon1"></path><path d="m136.932 101.904 14.54-7.442-11.925 27.336-10.304 7.859s-.971-15.722-.733-16.077c.238-.355 8.422-11.676 8.422-11.676z" data-color="7" class="icon1"></path><path d="M134.073 100.274a.31.31 0 0 1-.098-.016l-15.297-5.112a.307.307 0 1 1 .196-.581l15.297 5.112a.307.307 0 0 1-.098.597z" data-color="1" class="icon1"></path><path d="M138.628 100.085a.306.306 0 0 1-.134-.583l9.854-4.721a.309.309 0 0 1 .411.143.306.306 0 0 1-.144.409l-9.854 4.721a.291.291 0 0 1-.133.031z" data-color="1" class="icon1"></path><path d="M132.686 100.703c.394.098 7.904 0 7.904 0s-.492 2.724-1.181 2.685c-.689-.038-3.477.071-3.837 0-.36-.07-2.886-2.685-2.886-2.685z" data-color="7" class="icon1"></path><path d="m124.058 129.948 5.185-.291s.656-5.261.656-5.506c0-.245-1.05-5.04-1.05-5.04s-3.181.339-4.1 2.044c-.918 1.705-.691 8.793-.691 8.793z" data-color="7" class="icon1"></path><path d="m85.474 108.953 2.274 3.872 17.763 3.08-.545 5.637s-13.758 2.584-20.55 1.041c-6.792-1.544-10.641-8.801-10.641-8.801l11.699-4.829z" data-color="3" class="icon3"></path><path d="M115.183 119.375c.063-.033.117-.088.13-.154.193-1.033-.51-1.676-1.225-2.332-1.101-1.01-2.285-2.016-3.695-2.568-2.759-1.078-5.745.286-8.27 1.427-.09.041-.127.109-.13.18a.248.248 0 0 0-.047.124l-.01.102a.232.232 0 0 0-.164.219l-.229 4.972c-.005.109.083.217.187.245 2.495.657 5.057 1.088 7.616 1.419.84.109 2.109-.023 2.486-.745.942.102 1.918.266 2.602-.477.323-.351.797-.548.938-1.046.12-.43.013-.912-.189-1.366z" data-color="3" class="icon3"></path><path d="M114.929 119.418a.308.308 0 0 1-.184-.061l-3.454-2.582a.308.308 0 0 1 .37-.49l3.454 2.582a.305.305 0 0 1-.186.551z" opacity=".3"></path><path d="M114.091 121.222a.302.302 0 0 1-.163-.047l-3.87-2.429a.307.307 0 1 1 .327-.519l3.87 2.429a.307.307 0 0 1-.164.566z" opacity=".3"></path><path d="M111.336 122.277a.306.306 0 0 1-.181-.059l-2.061-1.499a.306.306 0 0 1-.067-.428.308.308 0 0 1 .43-.067l2.061 1.499a.306.306 0 0 1-.182.554z" opacity=".3"></path><path d="M85.984 108.027a.308.308 0 0 1-.308-.299c-.001-.035-.088-3.527 0-6.194.162-4.897-.72-9.485-.729-9.531a.308.308 0 0 1 .604-.118c.009.047.905 4.699.74 9.668-.088 2.649-.001 6.123 0 6.158.004.17-.13.31-.3.315l-.007.001z" opacity=".2"></path><path d="M70.989 114.489a.307.307 0 0 1-.295-.221l-2.08-7.128a.305.305 0 0 1 .21-.38.306.306 0 0 1 .381.209l2.08 7.128a.306.306 0 0 1-.296.392z" opacity=".2"></path><path d="M107.839 110.174a.306.306 0 0 1-.296-.391c1.951-6.788 4.881-17.055 4.955-17.518 0-.169.137-.29.307-.29.17 0 .307.154.307.323 0 .295-3.118 11.187-4.977 17.654a.308.308 0 0 1-.296.222z" opacity=".2"></path><path d="M115.708 59.912a.309.309 0 0 1-.289-.201c-.011-.029-1.106-2.926-3.199-3.147-1.229-.13-1.95.126-2.713.399-.602.214-1.225.436-2.075.436-.947 0-1.442-.269-1.878-.508-.443-.241-.824-.449-1.7-.363-.901.089-1.371.435-1.87.801-.478.351-.973.715-1.825.876-1.784.335-3.609-1.006-3.686-1.063a.305.305 0 0 1-.061-.429.308.308 0 0 1 .43-.062c.017.012 1.684 1.235 3.202.952.714-.135 1.132-.442 1.575-.767.543-.399 1.104-.811 2.174-.917 1.064-.106 1.568.169 2.056.435.408.222.794.432 1.583.432.744 0 1.29-.194 1.868-.401.795-.283 1.616-.576 2.986-.431 2.474.262 3.662 3.412 3.712 3.546a.305.305 0 0 1-.29.412z" opacity=".21"></path><path d="M109.871 54.907a6.015 6.015 0 0 1-1.689-.26c-.626-.182-1.024-.474-1.409-.755-.576-.422-1.121-.821-2.494-.905-1.184-.07-2.177.468-3.14.991-.919.499-1.796.966-2.775.92-2.008-.102-3.573-1.541-3.638-1.602a.306.306 0 0 1-.014-.433.309.309 0 0 1 .435-.015c.014.013 1.471 1.347 3.249 1.437.824.046 1.609-.39 2.449-.846.991-.539 2.112-1.152 3.472-1.066 1.555.095 2.228.588 2.821 1.023.357.262.695.51 1.217.661 1.746.507 2.657.031 2.667.026a.31.31 0 0 1 .417.119.305.305 0 0 1-.115.415c-.031.02-.524.29-1.453.29z" opacity=".21"></path><path d="M116.255 55.259a.307.307 0 0 1-.298-.231c-.004-.016-.434-1.642-1.583-2.438-2.115-1.466-4.756-.654-4.782-.646a.306.306 0 1 1-.187-.584c.12-.038 2.959-.91 5.32.727 1.341.929 1.809 2.715 1.828 2.79a.306.306 0 0 1-.298.382z" opacity=".21"></path><path d="M101.709 68.125c-.337-.356-.908-.7-1.416-.671-1.051.06-.404 1.535.01 1.935.371.358.917.654 1.437.683.479.026.732-.285.673-.745-.065-.502-.371-.849-.704-1.202z" opacity=".2"></path><path d="M114.918 74.898c-.307.549-.598 1.11-.901 1.663-.016 0-.031-.008-.047-.012-.543-.188-1.755-1.259-.826-1.753.449-.239 1.114-.165 1.57.016.07.028.137.055.204.086z" opacity=".2"></path><path d="M124.454 129.31a.307.307 0 0 1-.292-.404l9.265-27.548a.309.309 0 0 1 .39-.193.307.307 0 0 1 .194.388l-9.265 27.548a.308.308 0 0 1-.292.209z" opacity=".26"></path><path d="M129.324 129.31a.307.307 0 0 1-.29-.411l9.801-27.188a.306.306 0 0 1 .394-.185c.16.057.243.233.186.393l-9.801 27.188a.31.31 0 0 1-.29.203z" opacity=".26"></path><path d="M131.375 126.925a.307.307 0 0 1-.184-.553l7.412-5.463a.307.307 0 1 1 .366.493l-7.412 5.463a.31.31 0 0 1-.182.06z" data-color="1" class="icon1"></path><path d="M143.611 108.785c.37.638-.799 2-2.611 3.043-1.812 1.042-3.58 1.37-3.95.732-.37-.638.799-2 2.611-3.043 1.812-1.042 3.58-1.37 3.95-.732z" data-color="1" class="icon1"></path><path d="M140.331 102.122a.306.306 0 0 1-.142-.579l9.164-4.723a.309.309 0 0 1 .415.131.306.306 0 0 1-.132.413l-9.164 4.723a.303.303 0 0 1-.141.035z" data-color="1" class="icon1"></path><path d="m123.255 128.215.837-2.479-5.534-2.108-.935 2.475 5.632 2.112z" data-color="1" class="icon1"></path><path d="M165.708 162.83c-3.789 2.367-10.626 6.515-11.589 6.586-.455.036-1.208-.395-1.984-.995 2.291-1.639 12.882-8.367 12.882-8.367s-2.028-2.669-3.116-4.104c2.402-.293 4.6-.533 4.921-.484.74.111 2.821 2.096 3.12 2.785.294.692-.446 2.211-4.234 4.579z" opacity=".1"></path><path d="M101.464 175.223c-1.892-4.037-5.184-11.308-5.136-12.269.02-.454.542-1.146 1.235-1.839 1.351 2.467 6.751 13.766 6.751 13.766s2.908-1.678 4.47-2.577c-.003 2.412-.034 4.614-.122 4.925-.201.718-2.435 2.532-3.157 2.743-.726.207-2.148-.711-4.041-4.749z" opacity=".1"></path><path d="M131.375 126.925a.307.307 0 0 1-.184-.553l7.412-5.463a.307.307 0 1 1 .366.493l-7.412 5.463a.31.31 0 0 1-.182.06z" opacity=".1"></path><path d="M143.611 108.785c.37.638-.799 2-2.611 3.043-1.812 1.042-3.58 1.37-3.95.732-.37-.638.799-2 2.611-3.043 1.812-1.042 3.58-1.37 3.95-.732z" opacity=".1"></path><path d="M140.331 102.122a.306.306 0 0 1-.142-.579l9.164-4.723a.309.309 0 0 1 .415.131.306.306 0 0 1-.132.413l-9.164 4.723a.303.303 0 0 1-.141.035z" opacity=".1"></path><path opacity=".1" d="m123.255 128.215.837-2.479-5.534-2.108-.935 2.475 5.632 2.112z"></path><path d="M95.367 87.448c-4.953 0-10.834-5.85-11.082-6.099a.308.308 0 0 1 .437-.432c.059.059 5.949 5.918 10.645 5.918 4.723 0 7.471-2.069 7.498-2.09a.31.31 0 0 1 .432.055.305.305 0 0 1-.056.43c-.117.091-2.943 2.218-7.874 2.218z" opacity=".2"></path><path d="M88.934 143.918a.307.307 0 0 1-.308-.307c-.001-.024-.028-.721-.87-3.246-.836-2.506-3.376-3.922-3.401-3.936a.306.306 0 0 1-.122-.416.309.309 0 0 1 .418-.122c.113.062 2.776 1.541 3.69 4.281.876 2.628.901 3.364.901 3.44a.307.307 0 0 1-.308.306z" opacity=".21"></path><path d="M146.287 107.83c-.822-.463-2.383.157-2.952.985-.14.203-.239.433-.297.672-.056.234-.024.482-.095.705-.142.444-.545.762-.814 1.125-.617.834-.286 1.552-.581 2.519-.21.689-.442 1.41.22 1.938 1.708 1.363 3.183-2.214 3.692-3.249.532-1.081 1.295-2.295 1.347-3.542.024-.601-.187-.966-.52-1.153z" data-color="3" class="icon3"></path><path d="M145.638 110.859a.308.308 0 0 1-.141-.034l-1.931-1a.306.306 0 0 1-.131-.414.31.31 0 0 1 .415-.131l1.931.999a.308.308 0 0 1-.143.58z" opacity=".3"></path><path d="M144.672 112.913a.298.298 0 0 1-.143-.036l-2.08-1.092a.306.306 0 1 1 .287-.542l2.08 1.092a.306.306 0 0 1-.144.578z" opacity=".3"></path><path d="M143.707 114.893a.306.306 0 0 1-.153-.041l-1.413-.807a.306.306 0 1 1 .306-.531l1.413.807a.306.306 0 0 1-.153.572z" opacity=".3"></path><path d="M67.583 134.801a.307.307 0 0 1-.103-.596c.052-.018 5.276-1.849 10.884-2.629l.494-.069c5.4-.749 9.665-1.342 12.936-2.784 3.424-1.509 6.114-1.654 6.227-1.66a.31.31 0 0 1 .322.291.307.307 0 0 1-.292.321c-.027.001-2.696.148-6.008 1.608-3.35 1.477-7.653 2.074-13.101 2.831l-.494.069c-5.544.771-10.711 2.582-10.763 2.6a.3.3 0 0 1-.102.018z" opacity=".2"></path></g></g>
</svg>
</g><g opacity="1" transform="rotate(0 1278.2276 1181.3019)">
<svg width="333.4998" height="30" x="1278.2276" y="1181.3019" version="1.1" preserveAspectRatio="none" viewBox="0.0586 -30 428.30229999999995 38.5352">
  <g transform="matrix(1 0 0 1 0 0)" class="companyName"><path id="id-6izo4zJp24" d="M6.13-21.13L10.06-7.99L13.96-21.13L20.02-21.13L11.52 3.28L11.05 4.39Q9.16 8.54 4.80 8.54L4.80 8.54Q3.57 8.54 2.30 8.16L2.30 8.16L2.30 3.89L3.16 3.91Q4.77 3.91 5.56 3.42Q6.35 2.93 6.80 1.80L6.80 1.80L7.46 0.06L0.06-21.13L6.13-21.13Z M21.87-10.51L21.87-10.76Q21.87-13.91 23.09-16.37Q24.30-18.83 26.57-20.18Q28.85-21.52 31.85-21.52L31.85-21.52Q36.13-21.52 38.84-18.91Q41.54-16.29 41.85-11.80L41.85-11.80L41.89-10.35Q41.89-5.49 39.18-2.55Q36.46 0.39 31.89 0.39Q27.32 0.39 24.60-2.54Q21.87-5.47 21.87-10.51L21.87-10.51ZM27.52-10.35L27.52-10.35Q27.52-7.34 28.65-5.75Q29.78-4.16 31.89-4.16L31.89-4.16Q33.94-4.16 35.10-5.73Q36.25-7.30 36.25-10.76L36.25-10.76Q36.25-13.71 35.10-15.33Q33.94-16.95 31.85-16.95L31.85-16.95Q29.78-16.95 28.65-15.34Q27.52-13.73 27.52-10.35Z M58.98 0L58.83-2.15Q56.74 0.39 53.05 0.39L53.05 0.39Q49.65 0.39 47.86-1.56Q46.07-3.52 46.03-7.29L46.03-7.29L46.03-21.13L51.68-21.13L51.68-7.48Q51.68-4.18 54.69-4.18L54.69-4.18Q57.56-4.18 58.63-6.17L58.63-6.17L58.63-21.13L64.30-21.13L64.30 0L58.98 0Z M81.31-21.27L81.23-15.84Q80.08-16.00 79.20-16.00L79.20-16.00Q75.99-16.00 75.00-13.83L75.00-13.83L75.00 0L69.35 0L69.35-21.13L74.69-21.13L74.84-18.61Q76.54-21.52 79.55-21.52L79.55-21.52Q80.49-21.52 81.31-21.27L81.31-21.27Z M94.62-10.51L94.62-10.76Q94.62-13.91 95.84-16.37Q97.05-18.83 99.32-20.18Q101.60-21.52 104.61-21.52L104.61-21.52Q108.88-21.52 111.59-18.91Q114.29-16.29 114.61-11.80L114.61-11.80L114.64-10.35Q114.64-5.49 111.93-2.55Q109.21 0.39 104.64 0.39Q100.07 0.39 97.35-2.54Q94.62-5.47 94.62-10.51L94.62-10.51ZM100.27-10.35L100.27-10.35Q100.27-7.34 101.40-5.75Q102.54-4.16 104.64-4.16L104.64-4.16Q106.70-4.16 107.85-5.73Q109.00-7.30 109.00-10.76L109.00-10.76Q109.00-13.71 107.85-15.33Q106.70-16.95 104.61-16.95L104.61-16.95Q102.54-16.95 101.40-15.34Q100.27-13.73 100.27-10.35Z M133.45-21.13L137.30-7.68L140.07-21.13L145.52-21.13L140.13 0L135.41 0L131.40-13.30L127.40 0L122.69 0L117.30-21.13L122.75-21.13L125.50-7.70L129.37-21.13L133.45-21.13Z M149.00-21.13L154.31-21.13L154.49-18.69Q156.75-21.52 160.56-21.52L160.56-21.52Q163.92-21.52 165.56-19.55Q167.20-17.58 167.24-13.65L167.24-13.65L167.24 0L161.60 0L161.60-13.52Q161.60-15.31 160.81-16.12Q160.03-16.93 158.22-16.93L158.22-16.93Q155.83-16.93 154.64-14.90L154.64-14.90L154.64 0L149.00 0L149.00-21.13Z M182.20-10.72L182.20-10.72Q182.20-15.66 184.42-18.59Q186.63-21.52 190.48-21.52L190.48-21.52Q193.57-21.52 195.58-19.22L195.58-19.22L195.58-30L201.24-30L201.24 0L196.15 0L195.87-2.25Q193.76 0.39 190.44 0.39L190.44 0.39Q186.71 0.39 184.46-2.55Q182.20-5.49 182.20-10.72ZM187.84-10.31L187.84-10.31Q187.84-7.34 188.88-5.76Q189.91-4.18 191.89-4.18L191.89-4.18Q194.50-4.18 195.58-6.39L195.58-6.39L195.58-14.73Q194.52-16.93 191.93-16.93L191.93-16.93Q187.84-16.93 187.84-10.31Z M212.38-21.13L212.38 0L206.71 0L206.71-21.13L212.38-21.13ZM206.38-26.60L206.38-26.60Q206.38-27.87 207.23-28.69Q208.08-29.51 209.54-29.51L209.54-29.51Q210.99-29.51 211.85-28.69Q212.71-27.87 212.71-26.60L212.71-26.60Q212.71-25.31 211.84-24.49Q210.97-23.67 209.54-23.67Q208.12-23.67 207.25-24.49Q206.38-25.31 206.38-26.60Z M217.00-10.49L217.00-10.72Q217.00-15.59 219.32-18.55Q221.63-21.52 225.56-21.52L225.56-21.52Q229.03-21.52 230.97-19.14L230.97-19.14L231.20-21.13L236.32-21.13L236.32-0.70Q236.32 2.07 235.06 4.12Q233.80 6.17 231.51 7.25Q229.23 8.32 226.16 8.32L226.16 8.32Q223.84 8.32 221.63 7.39Q219.43 6.46 218.29 5L218.29 5L220.79 1.56Q222.90 3.93 225.91 3.93L225.91 3.93Q228.16 3.93 229.41 2.72Q230.66 1.52 230.66-0.68L230.66-0.68L230.66-1.82Q228.70 0.39 225.52 0.39L225.52 0.39Q221.71 0.39 219.36-2.59Q217.00-5.57 217.00-10.49L217.00-10.49ZM222.65-10.31L222.65-10.31Q222.65-7.44 223.80-5.81Q224.95-4.18 226.96-4.18L226.96-4.18Q229.54-4.18 230.66-6.11L230.66-6.11L230.66-15Q229.52-16.93 227.00-16.93L227.00-16.93Q224.97-16.93 223.81-15.27Q222.65-13.61 222.65-10.31Z M247.41-21.13L247.41 0L241.75 0L241.75-21.13L247.41-21.13ZM241.42-26.60L241.42-26.60Q241.42-27.87 242.27-28.69Q243.12-29.51 244.58-29.51L244.58-29.51Q246.03-29.51 246.89-28.69Q247.74-27.87 247.74-26.60L247.74-26.60Q247.74-25.31 246.88-24.49Q246.01-23.67 244.58-23.67Q243.15-23.67 242.29-24.49Q241.42-25.31 241.42-26.60Z M253.97-26.33L259.62-26.33L259.62-21.13L263.23-21.13L263.23-16.99L259.62-16.99L259.62-6.45Q259.62-5.27 260.07-4.77Q260.52-4.26 261.79-4.26L261.79-4.26Q262.72-4.26 263.45-4.39L263.45-4.39L263.45-0.12Q261.79 0.39 260.03 0.39L260.03 0.39Q254.09 0.39 253.97-5.61L253.97-5.61L253.97-16.99L250.89-16.99L250.89-21.13L253.97-21.13L253.97-26.33Z M285.13 0L279.42 0Q279.03-0.76 278.86-1.89L278.86-1.89Q276.81 0.39 273.52 0.39L273.52 0.39Q270.42 0.39 268.38-1.41Q266.34-3.20 266.34-5.94L266.34-5.94Q266.34-9.30 268.83-11.09Q271.32-12.89 276.02-12.91L276.02-12.91L278.62-12.91L278.62-14.12Q278.62-15.59 277.87-16.46Q277.12-17.34 275.50-17.34L275.50-17.34Q274.07-17.34 273.26-16.66Q272.45-15.98 272.45-14.79L272.45-14.79L266.81-14.79Q266.81-16.62 267.94-18.18Q269.07-19.75 271.14-20.63Q273.21-21.52 275.79-21.52L275.79-21.52Q279.70-21.52 281.99-19.56Q284.29-17.60 284.29-14.04L284.29-14.04L284.29-4.88Q284.31-1.88 285.13-0.33L285.13-0.33L285.13 0ZM274.75-3.93L274.75-3.93Q276.00-3.93 277.06-4.48Q278.11-5.04 278.62-5.98L278.62-5.98L278.62-9.61L276.51-9.61Q272.27-9.61 272.00-6.68L272.00-6.68L271.98-6.35Q271.98-5.29 272.72-4.61Q273.47-3.93 274.75-3.93Z M295.38-30L295.38 0L289.71 0L289.71-30L295.38-30Z M317.55-30L317.55 0L311.88 0L311.88-30L317.55-30Z M328.95-21.13L328.95 0L323.29 0L323.29-21.13L328.95-21.13ZM322.95-26.60L322.95-26.60Q322.95-27.87 323.80-28.69Q324.65-29.51 326.12-29.51L326.12-29.51Q327.56-29.51 328.42-28.69Q329.28-27.87 329.28-26.60L329.28-26.60Q329.28-25.31 328.41-24.49Q327.54-23.67 326.12-23.67Q324.69-23.67 323.82-24.49Q322.95-25.31 322.95-26.60Z M353.44-10.68L353.44-10.37Q353.44-5.29 351.27-2.45Q349.11 0.39 345.22 0.39L345.22 0.39Q341.78 0.39 339.73-2.25L339.73-2.25L339.48 0L334.40 0L334.40-30L340.04-30L340.04-19.24Q342.00-21.52 345.18-21.52L345.18-21.52Q349.05-21.52 351.24-18.68Q353.44-15.84 353.44-10.68L353.44-10.68ZM347.80-10.78L347.80-10.78Q347.80-13.98 346.78-15.46Q345.77-16.93 343.75-16.93L343.75-16.93Q341.06-16.93 340.04-14.73L340.04-14.73L340.04-6.39Q341.08-4.16 343.79-4.16L343.79-4.16Q346.53-4.16 347.39-6.86L347.39-6.86Q347.80-8.14 347.80-10.78Z M369.67-21.27L369.59-15.84Q368.44-16.00 367.56-16.00L367.56-16.00Q364.36-16.00 363.36-13.83L363.36-13.83L363.36 0L357.72 0L357.72-21.13L363.05-21.13L363.21-18.61Q364.91-21.52 367.91-21.52L367.91-21.52Q368.85-21.52 369.67-21.27L369.67-21.27Z M390.47 0L384.77 0Q384.38-0.76 384.20-1.89L384.20-1.89Q382.15 0.39 378.87 0.39L378.87 0.39Q375.76 0.39 373.72-1.41Q371.68-3.20 371.68-5.94L371.68-5.94Q371.68-9.30 374.17-11.09Q376.66-12.89 381.37-12.91L381.37-12.91L383.97-12.91L383.97-14.12Q383.97-15.59 383.22-16.46Q382.46-17.34 380.84-17.34L380.84-17.34Q379.42-17.34 378.61-16.66Q377.80-15.98 377.80-14.79L377.80-14.79L372.15-14.79Q372.15-16.62 373.28-18.18Q374.42-19.75 376.49-20.63Q378.56-21.52 381.14-21.52L381.14-21.52Q385.04-21.52 387.34-19.56Q389.63-17.60 389.63-14.04L389.63-14.04L389.63-4.88Q389.65-1.88 390.47-0.33L390.47-0.33L390.47 0ZM380.10-3.93L380.10-3.93Q381.35-3.93 382.41-4.48Q383.46-5.04 383.97-5.98L383.97-5.98L383.97-9.61L381.86-9.61Q377.62-9.61 377.35-6.68L377.35-6.68L377.33-6.35Q377.33-5.29 378.07-4.61Q378.81-3.93 380.10-3.93Z M406.72-21.27L406.64-15.84Q405.49-16.00 404.61-16.00L404.61-16.00Q401.41-16.00 400.41-13.83L400.41-13.83L400.41 0L394.77 0L394.77-21.13L400.10-21.13L400.26-18.61Q401.96-21.52 404.96-21.52L404.96-21.52Q405.90-21.52 406.72-21.27L406.72-21.27Z M414.47-21.13L418.40-7.99L422.31-21.13L428.36-21.13L419.86 3.28L419.40 4.39Q417.50 8.54 413.15 8.54L413.15 8.54Q411.92 8.54 410.65 8.16L410.65 8.16L410.65 3.89L411.51 3.91Q413.11 3.91 413.90 3.42Q414.69 2.93 415.14 1.80L415.14 1.80L415.80 0.06L408.40-21.13L414.47-21.13Z"/></g>
</svg>
</g><g opacity="1" transform="rotate(0 1254.4902 1063.3019)">
<svg width="380.9746" height="100" x="1254.4902" y="1063.3019" version="1.1" preserveAspectRatio="none" viewBox="1.32 -25.44 96.92 25.44">
  <g transform="matrix(1 0 0 1 0 0)" class="companyName"><path id="id-D6z1nYkh6" d="M10.64-5.20L10.64-5.20L10.64-9.80Q10.64-10.32 10.40-10.54Q10.16-10.76 9.56-10.76L9.56-10.76L6.04-10.76Q1.32-10.76 1.32-15.24L1.32-15.24L1.32-21.04Q1.32-25.44 6.36-25.44L6.36-25.44L11.24-25.44Q16.28-25.44 16.28-21.04L16.28-21.04L16.28-17.72L10.56-17.72L10.56-20.24Q10.56-21.24 9.48-21.24L9.48-21.24L8.12-21.24Q7.04-21.24 7.04-20.24L7.04-20.24L7.04-15.76Q7.04-15.24 7.28-15.02Q7.52-14.80 8.12-14.80L8.12-14.80L11.56-14.80Q14.12-14.80 15.24-13.70Q16.36-12.60 16.36-10.44L16.36-10.44L16.36-4.44Q16.36 0 11.32 0L11.32 0L6.48 0Q1.40 0 1.40-4.44L1.40-4.44L1.40-7.72L7.12-7.72L7.12-5.20Q7.12-4.20 8.20-4.20L8.20-4.20L9.56-4.20Q10.64-4.20 10.64-5.20Z M37.64 0L31.88 0L31-4.60L25.20-4.60L24.32 0L18.68 0L24.44-25.44L31.72-25.44L37.64 0ZM28.08-19.52L26-8.76L30.16-8.76L28.08-19.52Z M38.80-25.44L53.84-25.44L53.84-21.24L49.16-21.24L49.16 0L43.44 0L43.44-21.24L38.80-21.24L38.80-25.44Z M62.32-25.44L62.32-4.20L69.64-4.20L69.64 0L56.64 0L56.64-25.44L62.32-25.44Z M72.40 0L72.40-25.44L78.08-25.44L78.08 0L72.40 0Z M92.60-15.76L92.60-15.76L92.60-20.52Q92.60-21.52 91.52-21.52L91.52-21.52L88.24-21.52L88.24-14.76L91.52-14.76Q92.60-14.76 92.60-15.76ZM92.60-4.92L92.60-4.92L92.60-9.88Q92.60-10.40 92.36-10.62Q92.12-10.84 91.52-10.84L91.52-10.84L88.24-10.84L88.24-3.92L91.52-3.92Q92.60-3.92 92.60-4.92ZM82.60 0L82.60-25.44L93.16-25.44Q98.24-25.44 98.24-21.04L98.24-21.04L98.24-16.56Q98.24-13.60 96.44-12.84L96.44-12.84Q98.24-12.16 98.24-9.40L98.24-9.40L98.24-4.44Q98.24 0 93.16 0L93.16 0L82.60 0Z"/></g>
</svg>
</g></svg></svg>