<svg version="1.1" preserveAspectRatio="none" xmlns="http://www.w3.org/2000/svg" width="500" height="500" viewBox="0 0 500 500"><rect width="100%" height="100%" fill="#012B28" fill-opacity="1"/><svg viewBox="711.5898 426.9337 377.2404 320.2273" width="333" height="282.67304058632106" x="83.5px" y="108.6635px" xmlns="http://www.w3.org/2000/svg" xmlns:xlink="http://www.w3.org/1999/xlink" preserveAspectRatio="none"><defs></defs><style>.companyName {fill:#EBB42C;fill-opacity:1;}.icon2 {fill:#E7240E;fill-opacity:1;}.icon3 {fill:#B47049;fill-opacity:1;}.icon3-str {stroke:#B47049;stroke-opacity:1;}.text {fill:#EBB42C;fill-opacity:1;}</style><g opacity="1" transform="rotate(0 800.2554 735.161)">
<svg width="199.9093" height="12" x="800.2554" y="735.161" version="1.1" preserveAspectRatio="none" viewBox="4.32 -26.8 453.08000000000004 27.2">
  <g transform="matrix(1 0 0 1 0 0)" class="text"><path id="id-6izo4zJp13" d="M22.80-23.40L7.52-23.40L7.52-14.88L19.44-14.88L19.44-11.88L7.52-11.88L7.52 0L4.32 0L4.32-26.40L22.80-26.40L22.80-23.40Z M43.92-3L59.84-3L59.84 0L40.72 0L40.72-26.40L59.24-26.40L59.24-23.40L43.92-23.40L43.92-14.88L55.84-14.88L55.84-11.88L43.92-11.88L43.92-3Z M81.44-3L97.36-3L97.36 0L78.24 0L78.24-26.40L96.76-26.40L96.76-23.40L81.44-23.40L81.44-14.88L93.36-14.88L93.36-11.88L81.44-11.88L81.44-3Z M118.96-3L134.08-3L134.08 0L115.76 0L115.76-26.40L118.96-26.40L118.96-3Z M193.72-26.40L193.72-23.40L184.52-23.40L184.52 0L181.32 0L181.32-23.40L172.12-23.40L172.12-26.40L193.72-26.40Z M228.84-26.40L232.04-26.40L232.04 0L228.84 0L228.84-11.88L214.52-11.88L214.52 0L211.32 0L211.32-26.40L214.52-26.40L214.52-14.88L228.84-14.88L228.84-26.40Z M255.88-3L271.80-3L271.80 0L252.68 0L252.68-26.40L271.20-26.40L271.20-23.40L255.88-23.40L255.88-14.88L267.80-14.88L267.80-11.88L255.88-11.88L255.88-3Z M334.32-23.40L319.04-23.40L319.04-14.88L330.96-14.88L330.96-11.88L319.04-11.88L319.04 0L315.84 0L315.84-26.40L334.32-26.40L334.32-23.40Z M362.40-26.80Q366.12-26.80 368.88-25.14Q371.64-23.48 373.14-20.42Q374.64-17.36 374.64-13.20L374.64-13.20Q374.64-9.04 373.14-5.98Q371.64-2.92 368.88-1.26Q366.12 0.40 362.40 0.40L362.40 0.40Q358.68 0.40 355.92-1.26Q353.16-2.92 351.66-5.98Q350.16-9.04 350.16-13.20L350.16-13.20Q350.16-17.36 351.66-20.42Q353.16-23.48 355.92-25.14Q358.68-26.80 362.40-26.80L362.40-26.80ZM362.40-23.80Q358.28-23.80 355.90-20.98Q353.52-18.16 353.52-13.20L353.52-13.20Q353.52-8.24 355.90-5.42Q358.28-2.60 362.40-2.60L362.40-2.60Q366.52-2.60 368.90-5.42Q371.28-8.24 371.28-13.20L371.28-13.20Q371.28-18.16 368.90-20.98Q366.52-23.80 362.40-23.80L362.40-23.80Z M404.32-26.80Q408.04-26.80 410.80-25.14Q413.56-23.48 415.06-20.42Q416.56-17.36 416.56-13.20L416.56-13.20Q416.56-9.04 415.06-5.98Q413.56-2.92 410.80-1.26Q408.04 0.40 404.32 0.40L404.32 0.40Q400.60 0.40 397.84-1.26Q395.08-2.92 393.58-5.98Q392.08-9.04 392.08-13.20L392.08-13.20Q392.08-17.36 393.58-20.42Q395.08-23.48 397.84-25.14Q400.60-26.80 404.32-26.80L404.32-26.80ZM404.32-23.80Q400.20-23.80 397.82-20.98Q395.44-18.16 395.44-13.20L395.44-13.20Q395.44-8.24 397.82-5.42Q400.20-2.60 404.32-2.60L404.32-2.60Q408.44-2.60 410.82-5.42Q413.20-8.24 413.20-13.20L413.20-13.20Q413.20-18.16 410.82-20.98Q408.44-23.80 404.32-23.80L404.32-23.80Z M444.12-26.40Q450.36-26.40 453.88-22.96Q457.40-19.52 457.40-13.20L457.40-13.20Q457.40-6.88 453.88-3.44Q450.36 0 444.12 0L444.12 0L435.60 0L435.60-26.40L444.12-26.40ZM444.44-3Q448.96-3 451.50-5.70Q454.04-8.40 454.04-13.20L454.04-13.20Q454.04-18 451.50-20.70Q448.96-23.40 444.44-23.40L444.44-23.40L438.80-23.40L438.80-3L444.44-3Z"/></g>
</svg>
</g><g opacity="1" transform="rotate(0 711.5898 661.161)">
<svg width="377.2404" height="40" x="711.5898" y="661.161" version="1.1" preserveAspectRatio="none" viewBox="2 -28.48 273.12 28.96">
  <g transform="matrix(1 0 0 1 0 0)" class="companyName"><path id="id-D6z1nYkh7" d="M29.56-4.08L28.36-5.16Q24.28-1.32 18.68-1.32L18.68-1.32Q15.56-1.32 13.16-2.40Q10.76-3.48 9.16-5.28Q7.56-7.08 6.74-9.44Q5.92-11.80 5.92-14.36L5.92-14.36Q5.92-17.08 6.78-19.34Q7.64-21.60 9.20-23.24Q10.76-24.88 12.90-25.80Q15.04-26.72 17.56-26.72L17.56-26.72Q19.28-26.72 20.70-26.32Q22.12-25.92 23.22-25.28Q24.32-24.64 25.02-23.82Q25.72-23 26-22.16L26-22.16L28.96-22.16Q28.36-23.52 27.42-24.68Q26.48-25.84 25.08-26.68Q23.68-27.52 21.80-28Q19.92-28.48 17.52-28.48L17.52-28.48Q14.04-28.48 11.18-27.48Q8.32-26.48 6.28-24.62Q4.24-22.76 3.12-20.14Q2-17.52 2-14.28L2-14.28Q2-11.48 2.90-8.82Q3.80-6.16 5.68-4.10Q7.56-2.04 10.48-0.78Q13.40 0.48 17.44 0.48L17.44 0.48Q20 0.48 22.02 0Q24.04-0.48 25.54-1.18Q27.04-1.88 28.04-2.68Q29.04-3.48 29.56-4.08L29.56-4.08Z M53.20-28L49.56-28L49.56-10.80Q49.56-9.16 49.88-7.18Q50.20-5.20 51.40-3.50Q52.60-1.80 54.96-0.66Q57.32 0.48 61.40 0.48L61.40 0.48Q63.96 0.48 65.94-0.32Q67.92-1.12 69.26-2.52Q70.60-3.92 71.28-5.78Q71.96-7.64 71.96-9.76L71.96-9.76L71.96-28L70.20-28L70.20-11.08Q70.20-10.20 70.16-9.30Q70.12-8.40 69.92-7.50Q69.72-6.60 69.30-5.72Q68.88-4.84 68.08-3.96L68.08-3.96Q66.64-2.40 64.84-1.84Q63.04-1.28 61.08-1.28L61.08-1.28Q59.40-1.28 58.10-1.80Q56.80-2.32 55.64-3.36L55.64-3.36Q54.72-4.16 54.24-4.96Q53.76-5.76 53.52-6.54Q53.28-7.32 53.24-8.12Q53.20-8.92 53.20-9.72L53.20-9.72L53.20-28Z M101.20-28L97.56-28L97.56 0L101.20 0L101.20-28Z M127.80-7.08L125.08-7.08Q125.16-5.36 125.98-3.96Q126.80-2.56 128.22-1.58Q129.64-0.60 131.56-0.06Q133.48 0.48 135.76 0.48L135.76 0.48Q138.08 0.48 139.94-0.08Q141.80-0.64 143.12-1.68Q144.44-2.72 145.16-4.20Q145.88-5.68 145.88-7.48L145.88-7.48Q145.88-9.96 144.64-11.54Q143.40-13.12 141.54-14.18Q139.68-15.24 137.50-15.96Q135.32-16.68 133.46-17.48Q131.60-18.28 130.36-19.32Q129.12-20.36 129.12-22.08L129.12-22.08Q129.12-23.04 129.54-23.88Q129.96-24.72 130.78-25.34Q131.60-25.96 132.80-26.34Q134-26.72 135.56-26.72L135.56-26.72Q138.16-26.72 139.98-25.62Q141.80-24.52 142.12-22.16L142.12-22.16L144.84-22.16Q144.60-23.64 143.76-24.82Q142.92-26 141.64-26.82Q140.36-27.64 138.74-28.06Q137.12-28.48 135.36-28.48L135.36-28.48Q133.52-28.48 131.86-28Q130.20-27.52 128.94-26.60Q127.68-25.68 126.94-24.28Q126.20-22.88 126.20-21.08L126.20-21.08Q126.20-18.72 127.40-17.28Q128.60-15.84 130.42-14.88Q132.24-13.92 134.36-13.24Q136.48-12.56 138.30-11.70Q140.12-10.84 141.32-9.60Q142.52-8.36 142.52-6.28L142.52-6.28Q142.52-3.68 140.62-2.48Q138.72-1.28 135.56-1.28L135.56-1.28Q133.04-1.28 131.52-1.94Q130-2.60 129.20-3.52Q128.40-4.44 128.12-5.42Q127.84-6.40 127.80-7.08L127.80-7.08Z M174.64-28L171-28L171 0L174.64 0L174.64-28Z M226.24-28L224.40-28L224.40-6.60L224.24-6.60L202.04-28.48L201.84-28.48L201.84 0L203.68 0L203.68-21.40L203.84-21.40L226.04 0.48L226.24 0.48L226.24-28Z M253.60-8.24L267.40-8.24L271.24 0L275.12 0L262.08-28L260.08-28L248.24 0L250.08 0L253.60-8.24ZM260.28-23.52L266.56-10.04L254.36-10.04L260.12-23.52L260.28-23.52Z"/></g>
</svg>
</g><g opacity="1" transform="rotate(0 850.21 426.9337)">
<svg width="100" height="174.2273" x="850.21" y="426.9337" version="1.1" preserveAspectRatio="none" viewBox="51.5009651184082 15.499815940856934 97.00102233886719 169.00218200683594">
  <g transform="matrix(1 0 0 1 0 0)" ><g><path d="M147.31 141.195c.007-9.809-4.664-22.536-9.063-29.53-.798-1.271-1.689-2.644-2.63-4.096-6.193-9.549-14.677-22.627-14.136-32.964.098-1.832.037-3.596-.024-5.466-.04-1.271-.083-2.573-.083-3.962.005-10.218-9.258-18.548-20.762-18.817l-4.052.23c-10.1 1.475-17.828 9.231-17.835 18.56 0 1.387-.042 2.692-.088 3.962-.062 1.869-.125 3.636-.034 5.463.526 10.336-7.97 23.4-14.173 32.936a339.967 339.967 0 0 0-2.642 4.103c-4.407 6.989-9.095 19.707-9.1 29.518-.017 23.241 21.196 42.159 47.282 42.176 26.087.019 47.325-18.874 47.34-42.113z" data-color="1" class="companyName"></path><path d="M100.534 31.896c2.204-4.468.622-10.067-6.371-13.693-7.091-3.682-19.374.534-19.374.534s3.788 11.995 10.878 15.674c7.019 3.629 12.337 2.173 14.703-2.197" data-color="2" class="icon2"></path><path d="M139.254 111.032a282.75 282.75 0 0 0-2.379-3.71l-.264-.409c-6.104-9.41-14.463-22.299-13.942-32.243.098-1.836.042-3.579-.017-5.423l-.01-.275c-.038-1.216-.078-2.472-.078-3.794.005-10.727-9.787-19.686-21.845-20.006a36.229 36.229 0 0 1-.096-5.358c.56-9.461 4.925-16.303 12.973-20.336a1.333 1.333 0 0 0 .594-1.786 1.327 1.327 0 0 0-1.782-.595c-4.618 2.314-7.83 5.344-10.035 8.672-.934-3.653-4.015-6.733-7.664-8.624-7.457-3.874-19.786.285-20.307.464-.611.21-.943.87-.748 1.488.16.509 4.024 12.511 11.466 16.374 3.017 1.56 5.649 2.206 7.894 2.206 2.172 0 3.977-.61 5.417-1.581-.548 3.28-.545 6.457-.317 9.212l-1.62.092a.894.894 0 0 0-.104.011c-10.917 1.594-18.846 9.896-18.853 19.74 0 1.382-.043 2.694-.087 3.923l-.005.148c-.061 1.845-.119 3.587-.027 5.415.507 9.952-7.868 22.826-13.982 32.225a355.783 355.783 0 0 0-2.652 4.117c-4.496 7.131-9.278 20.123-9.283 30.154-.008 11.585 5.053 22.484 14.252 30.688 9.158 8.169 21.311 12.672 34.22 12.681h.039c12.893 0 25.037-4.487 34.197-12.636 9.209-8.193 14.285-19.084 14.293-30.669.005-10.036-4.76-23.033-9.248-30.165zm-53.04-77.68c-5.331-2.767-8.767-10.844-9.889-13.841 3.135-.902 11.939-3.029 17.292-.249 5.72 2.965 8.016 7.717 5.852 12.106a1.045 1.045 0 0 0-.06.144 1.19 1.19 0 0 0-.083.133c-2.25 4.152-7.151 4.788-13.112 1.707zm46.413 136.729c-8.724 7.762-20.306 12.036-32.617 12.035h-.038c-12.325-.008-23.917-4.297-32.64-12.077-8.684-7.745-13.462-18.011-13.454-28.906.005-9.584 4.597-22.034 8.916-28.883.8-1.269 1.69-2.64 2.632-4.088 6.293-9.674 14.911-22.923 14.365-33.648-.087-1.728-.031-3.422.03-5.215l.004-.145c.045-1.247.088-2.584.088-4.004.006-8.634 7.054-15.933 16.766-17.373l1.694-.096c.517 3.76 1.347 6.29 1.375 6.37a1.328 1.328 0 1 0 2.513-.863c-.013-.037-.758-2.275-1.257-5.617 10.618.445 19.184 8.264 19.179 17.606 0 1.36.04 2.636.08 3.871l.009.276c.058 1.792.113 3.485.02 5.219-.562 10.721 8.041 23.985 14.326 33.675l.261.402a301.74 301.74 0 0 1 2.361 3.681c4.31 6.851 8.886 19.307 8.879 28.893-.006 10.894-4.797 21.153-13.492 28.887z" data-color="3" class="icon3"></path><path d="M90.114 106.131c-2.687 0-4.873 1.882-4.873 4.195 0 .658.533 1.192 1.19 1.192s1.19-.534 1.19-1.192c0-.981 1.142-1.811 2.493-1.811s2.493.829 2.493 1.811c0 .658.533 1.192 1.19 1.192s1.19-.534 1.19-1.192c0-2.312-2.186-4.195-4.873-4.195z" data-color="3" class="icon3"></path><path d="M109.886 106.131c-2.687 0-4.873 1.882-4.873 4.195 0 .658.533 1.192 1.19 1.192.657 0 1.19-.534 1.19-1.192 0-.981 1.142-1.811 2.493-1.811s2.493.829 2.493 1.811c0 .658.533 1.192 1.19 1.192.657 0 1.19-.534 1.19-1.192 0-2.312-2.186-4.195-4.873-4.195z" data-color="3" class="icon3"></path><path d="M101.89 118.559a2.264 2.264 0 0 1-2.261 2.266 2.264 2.264 0 0 1-2.261-2.266 2.264 2.264 0 0 1 2.261-2.266 2.264 2.264 0 0 1 2.261 2.266z" data-color="3" class="icon3"></path></g></g>
</svg>
</g></svg></svg>