<svg version="1.1" preserveAspectRatio="none" xmlns="http://www.w3.org/2000/svg" width="500" height="500" viewBox="0 0 500 500"><rect width="100%" height="100%" fill="#F5E7E0" fill-opacity="1"/><svg viewBox="107.6873 414.1647 369.54 330.6232" width="333" height="297.93128105211883" x="83.5px" y="101.0344px" xmlns="http://www.w3.org/2000/svg" xmlns:xlink="http://www.w3.org/1999/xlink" preserveAspectRatio="none"><defs></defs><style>.companyName {fill:#C66358;fill-opacity:1;}.icon1 {fill:#C66358;fill-opacity:1;}.icon2 {fill:#E3BBA7;fill-opacity:1;}.icon3 {fill:#985A55;fill-opacity:1;}.icon3-str {stroke:#985A55;stroke-opacity:1;}.text {fill:#C66358;fill-opacity:1;}</style><g opacity="1" transform="rotate(0 200.0723 414.1647)">
<svg width="184.77" height="140.6232" x="200.0723" y="414.1647" version="1.1" preserveAspectRatio="none" viewBox="19.998458862304688 38.49860382080078 160.00448608398438 121.77483367919922">
  <g transform="matrix(1 0 0 1 0 0)" ><g><path d="M128.882 143.044c-.062.067-.128.131-.192.197.143.26.139.608-.153.848-.765.63-1.581 1.19-2.436 1.68.68 3.121-.047 6.521 1.44 9.472 1.662 3.299 5.354 4.907 8.899 5.024 4.395.144 8.482-1.591 12.683-2.6 2.275-.547 4.96-1.087 7.176-.05.204.095.399.204.585.322l-2.043-5.941 6.223-2.422c-3.924-1.819-8.424-1.285-12.495-.253-2.281.579-4.515 1.324-6.795 1.905a30.71 30.71 0 0 1-3.641.719c-.907.117-2.148.343-2.939-.259-.744-.566-.599-1.63-.45-2.435.183-.987.454-1.943.538-2.948a13.586 13.586 0 0 0-.588-5.239c-1.739.458-3.483.897-5.232 1.315-.187.229-.381.45-.58.665z" data-color="1" class="icon1"></path><path d="m177.203 100.932-.049-.361-.067-.482a770.9 770.9 0 0 0-.798-5.663c-.81-5.589-1.674-11.169-2.572-16.744a1752.55 1752.55 0 0 0-2.165-13.101c-.934-5.534-1.888-11.065-2.842-16.596l-.413-1.225a.685.685 0 0 0-.121.04l-6.703 2.918-.968-5.272c-.062-.336-.508-.351-.625-.117-2.627 1.269-5.255 2.538-7.88 3.812l-1.571-5.323-1.066-3.609c.021-.25-.257-.505-.503-.304-.611.497-1.224.992-1.836 1.488l-.572-1.465c.068-.255-.208-.549-.464-.379a.346.346 0 0 0-.211.166 184.824 184.824 0 0 1-4.25 3.348c-5.036 3.856-10.24 7.49-15.416 11.155a510.507 510.507 0 0 0-6.733 4.835 241.58 241.58 0 0 0-5.355 4.032c-.435.338-.868.677-1.3 1.019a144.88 144.88 0 0 0-6.094 5.084 108.954 108.954 0 0 0-6.494 6.239 93.04 93.04 0 0 0-2.254 2.445 711.396 711.396 0 0 0-15.576-3.192c-.465-.09-.93-.178-1.396-.267a699.302 699.302 0 0 0-12.352-2.246c-.302-.052-.604-.106-.905-.157-.254-.044-.509-.086-.763-.129a696.535 696.535 0 0 0-32.305-4.724c-.218-.123-.577.089-.475.405l1.925 5.991c-3.776-.174-7.553-.329-11.331-.461-.217-.008-.349.166-.365.335a.31.31 0 0 0 .01.207 77.504 77.504 0 0 0 3.024 6.889c-2.056.088-4.112.176-6.168.269l-.009.001c-.207-.036-.466.157-.396.427l.003.012c.82 2.824 1.76 5.609 2.817 8.352-.894.044-1.788.087-2.682.125a.572.572 0 0 0-.404.171.894.894 0 0 0-.52.662c-.054.323.049.673.204.997.061.133.134.262.209.383l13.628 25.897.018.034.136.258.409.777 11.896 22.605 1.398 2.656 7.769 14.763c.022.042.048.08.075.115.1.231.319.41.64.391a265.831 265.831 0 0 0 56.435-9.572l.322-.091a.622.622 0 0 0 .437.309c4.305.875 8.858.102 12.648-2.072.854-.49 1.67-1.051 2.436-1.68.292-.24.296-.588.153-.848.063-.066.129-.13.192-.197.199-.215.393-.436.578-.664 1.749-.418 3.493-.857 5.232-1.315a229.757 229.757 0 0 0 33.796-11.767 230.296 230.296 0 0 0 10.743-5.051.658.658 0 0 0 .365-.484.598.598 0 0 0 .264-.584c-.777-7.838-1.726-15.662-2.793-23.47zM24.097 88.007c-.111-.291-.22-.582-.329-.873.154.403.269.711.329.873zm124.751-48.253-1.842 1.496-.001-.003c.614-.498 1.23-.994 1.843-1.493zm-14.955 8.748-.018.014-.037.026.055-.04zM25.096 72.757l.322.012 1.042 3.28a76.222 76.222 0 0 1-1.364-3.292zm-.79 15.798-.16-.42 8.433-.087c-2.756.197-5.514.366-8.273.507z" data-color="2" class="icon2"></path><path d="M148.848 39.754c-.614.499-1.229.995-1.844 1.493l.001.003 1.843-1.496z" data-color="2" class="icon2"></path><path d="m83.986 74.671-.037-.007-.452-.087-.003.017.492.077z" data-color="2" class="icon2"></path><path d="m105.961 74.679-.001-.005.001.005z" data-color="3" class="icon3"></path><path d="M148.012 50.809c-5.504 2.692-10.992 5.426-16.434 8.247-7.951 4.122-15.803 8.432-23.462 13.078-.828.502-1.653 1.008-2.476 1.518a.649.649 0 0 1 .349.458.62.62 0 0 1 .361-.391l2.665-1.16 1.332-.58 9.609-4.184 24.11-10.497 16.795-7.313-.912-4.967a2621.12 2621.12 0 0 0-11.937 5.791z" data-color="3" class="icon3"></path><path d="M35.604 87.822a409.503 409.503 0 0 0 25.862-2.869 410.923 410.923 0 0 0 24.929-4.363l.028-.006c-.043-.367.328-.758.747-.733 1.191-1.432 3.607-.557 5.201-.601a13.154 13.154 0 0 0 4.647-.999.23.23 0 0 1-.014-.019 2333.954 2333.954 0 0 0-75.463 2.201 103.523 103.523 0 0 0 2.23 6.701c.153.404.342 2.079.403 2.241.016.043.801 1.138.817 1.181l7.591-2.507c1.006-.073 2.014-.148 3.022-.227z" data-color="3" class="icon3"></path><path d="m70.519 75.39-.759-.06c-5.561-.443-11.126-.842-16.693-1.194-9.21-.582-19.427-1.035-28.649-1.367l2.042 3.28a76.693 76.693 0 0 0 1.623 3.446c3.252-.138 6.503-.272 9.756-.397a2328.87 2328.87 0 0 1 56.752-1.481c-4.41-.461-8.823-.895-13.238-1.298-3.61-.329-7.221-.639-10.834-.929z" data-color="3" class="icon3"></path><path d="M98.379 81.803c3.41-1.137 6.017-4.061 6.336-7.704a.747.747 0 0 1 .031-.151.927.927 0 0 1-.004-.311c-.245-.357-.906-.116-1.167.107-.314.267-.54.638-.792.96a13.262 13.262 0 0 1-1.516 1.627 13.837 13.837 0 0 1-4.007 2.527 13.62 13.62 0 0 1-4.622 1.033 14.157 14.157 0 0 1-2.264-.097c-.876-.104-1.906-.247-2.58.359 3.119 1.985 7.009 2.842 10.585 1.65z" data-color="3" class="icon3"></path><path d="m83.495 74.593.003-.017-1.597-.309-1.395-.268a701.196 701.196 0 0 0-11.499-2.09c-.307-.053-.613-.108-.92-.16l-.776-.131a704.253 704.253 0 0 0-32.424-4.764l.017.052 1.826 5.681a1014.159 1014.159 0 0 1 32.391 2.038l.128.01 1.602.129c8.314.671 16.62 1.446 24.916 2.321a696.18 696.18 0 0 0-11.779-2.415l-.493-.077z" data-color="3" class="icon3"></path><path d="M102.398 74.135c.463-.605.994-1.342 1.839-1.337.305.002.59.095.81.264.649-.485 1.296-.972 1.945-1.458a1300.55 1300.55 0 0 0 7.661-5.778 1313.034 1313.034 0 0 0 25.54-19.931 1280.68 1280.68 0 0 0 6.301-5.07l-.549-1.407a199.279 199.279 0 0 1-5.69 4.431l-2.631 1.78-3.731 2.872-.018.014-.037.026c-4.678 3.346-9.408 6.621-14.046 10.021a250.85 250.85 0 0 0-4.316 3.228 175.662 175.662 0 0 0-2.761 2.159 140.163 140.163 0 0 0-6.395 5.398 121 121 0 0 0-1.397 1.28c-2.467 2.294-4.833 4.696-7.053 7.239l.04-.02a12.918 12.918 0 0 0 4.488-3.711z" data-color="3" class="icon3"></path><path d="M139.043 47.652a1322.93 1322.93 0 0 1-29.582 22.917 344.967 344.967 0 0 1 7.327-4.266 456.348 456.348 0 0 1 15.513-8.352c6.324-3.262 12.708-6.409 19.108-9.52l-2.561-8.676-1.842 1.496-.001-.003c-2.419 1.96-4.842 3.915-7.274 5.858-.23.181-.459.363-.688.546z" data-color="3" class="icon3"></path><path d="M97.451 106.958A812.96 812.96 0 0 0 86.394 80.59a410.923 410.923 0 0 1-24.929 4.363 409.421 409.421 0 0 1-40.527 3.761.572.572 0 0 0-.404.171.897.897 0 0 0-.52.662c-.055.323.049.673.204.997.061.133.134.262.209.383l13.628 25.897.018.034.136.258.409.777 11.896 22.605 1.398 2.656 7.769 14.763c.022.042.048.08.075.115.101.231.319.41.64.391a265.831 265.831 0 0 0 56.435-9.572 810.49 810.49 0 0 0-15.38-41.893z" data-color="2" class="icon2"></path><path d="M126.477 141.163c-.397-1.075-.793-2.151-1.187-3.228l-.25-.687c-.313-.858-.626-1.716-.937-2.576a973.842 973.842 0 0 1-12.157-35.815c-.188-.59-.373-1.181-.56-1.772l-.425-1.345c-.25-.796-.498-1.593-.746-2.389l-.223-.715c-.287-.924-.572-1.848-.856-2.773l-.099-.322c-.31-1.01-.617-2.02-.924-3.03l-.019-.062c-.943-3.113-1.871-6.231-2.784-9.353-1.15 2.777-3.566 4.958-6.463 5.923-3.504 1.168-7.202.613-10.417-1.018l.001.003a815.678 815.678 0 0 1 2.768 6.407c.319.747.638 1.493.954 2.241a812.796 812.796 0 0 1 14.055 35.502l.649 1.77c.161.441.324.881.484 1.322.292.801.581 1.602.87 2.404l.245.679a928.874 928.874 0 0 1 2.176 6.128l.009.025c1.086 3.097 2.152 6.2 3.201 9.31 4.86.972 9.971-.274 13.848-3.356a911.84 911.84 0 0 1-1.215-3.269c.003-.002.002-.003.002-.004z" data-color="2" class="icon2"></path><path d="M176.289 94.426c-.81-5.589-1.674-11.169-2.572-16.744-.704-4.37-1.428-8.737-2.164-13.101-.934-5.534-1.888-11.065-2.842-16.596l-.413-1.225a.685.685 0 0 0-.121.04l-6.703 2.918-.611.266-16.795 7.313-24.11 10.497-9.609 4.184-1.332.58-2.665 1.16a.62.62 0 0 0-.361.391.731.731 0 0 1 .01.195 9.092 9.092 0 0 1-.04.37l.001.005c.67 2.311 1.348 4.619 2.034 6.925l.138.46a945.127 945.127 0 0 0 1.957 6.479 971.998 971.998 0 0 0 18.929 55.727c.199-.215.393-.436.578-.665 1.749-.418 3.493-.857 5.232-1.315a229.757 229.757 0 0 0 33.796-11.767 230.296 230.296 0 0 0 10.743-5.051.654.654 0 0 0 .364-.484.598.598 0 0 0 .264-.584c-.777-7.842-1.726-15.666-2.793-23.474l-.049-.361-.067-.482a855.684 855.684 0 0 0-.799-5.661z" data-color="2" class="icon2"></path><path d="M128.674 145.315c.292-.24.296-.588.153-.848.063-.066.129-.13.192-.197a975.1 975.1 0 0 1-9.387-26.251 972.908 972.908 0 0 1-11.499-35.955l-.138-.46c-.686-2.306-1.364-4.614-2.034-6.925l-.001-.005c.016-.123.029-.246.04-.37a.647.647 0 0 0-.359-.653c.823-.51 1.648-1.016 2.476-1.518 7.659-4.647 15.511-8.956 23.462-13.078a785.076 785.076 0 0 1 16.434-8.247c3.973-1.944 7.956-3.867 11.939-5.79l.912 4.967.611-.266-.968-5.272c-.062-.336-.508-.351-.625-.117-2.627 1.269-5.255 2.538-7.88 3.812l-1.571-5.323-1.066-3.61c.02-.25-.257-.505-.504-.304-.611.497-1.224.992-1.836 1.488l-.572-1.465c.068-.255-.207-.549-.464-.379a.346.346 0 0 0-.211.166 184.824 184.824 0 0 1-4.25 3.348c-5.036 3.856-10.24 7.49-15.416 11.155a503.955 503.955 0 0 0-6.733 4.835 239.26 239.26 0 0 0-5.355 4.032c-.435.338-.868.677-1.3 1.019a145.551 145.551 0 0 0-6.095 5.084 108.954 108.954 0 0 0-6.494 6.239 93.04 93.04 0 0 0-2.254 2.445 705.561 705.561 0 0 0-15.576-3.192l-1.395-.267a690.243 690.243 0 0 0-12.352-2.245c-.302-.052-.603-.106-.905-.157-.254-.044-.509-.086-.763-.129a696.535 696.535 0 0 0-32.305-4.724c-.218-.123-.577.089-.475.405l1.925 5.991c-3.776-.174-7.553-.329-11.331-.461-.217-.008-.349.166-.365.335a.31.31 0 0 0 .01.207 77.504 77.504 0 0 0 3.024 6.889c-2.056.088-4.112.176-6.168.269l-.009.001c-.207-.036-.466.157-.396.427l.003.012c.82 2.824 1.76 5.609 2.817 8.352l.686-.034-.16-.42-.049-.128c-.111-.291-.22-.582-.329-.873a103.727 103.727 0 0 1-2.23-6.701 2342.867 2342.867 0 0 1 58.938-1.928c5.508-.11 11.017-.201 16.525-.273l.014.019a13.159 13.159 0 0 1-4.647.999c-1.594.044-4.01-.83-5.201.601-.419-.025-.79.365-.747.733l-.028.006a812.96 812.96 0 0 1 11.057 26.368 812.99 812.99 0 0 1 15.381 41.893l.322-.091a.622.622 0 0 0 .437.309c4.305.875 8.858.102 12.649-2.072a17.308 17.308 0 0 0 2.436-1.678zm-61.17-67.164a2271.813 2271.813 0 0 0-39.422 1.345 76.629 76.629 0 0 1-1.623-3.446 76.751 76.751 0 0 1-1.364-3.292l.322.012a1011.892 1011.892 0 0 1 45.101 2.621 1011.464 1011.464 0 0 1 24.071 2.228c-9.028.125-18.057.301-27.085.532zm3.346-3.386-1.602-.129-.128-.01a1013.91 1013.91 0 0 0-32.391-2.038l-1.826-5.681-.017-.052a702.886 702.886 0 0 1 32.424 4.764l.776.131.92.16A699.27 699.27 0 0 1 80.505 74l1.395.268 1.597.309.452.087.037.007a704.1 704.1 0 0 1 11.779 2.415 1023.716 1023.716 0 0 0-24.915-2.321zm76.155-33.518c.614-.498 1.23-.994 1.844-1.493l2.561 8.676c-6.4 3.111-12.784 6.259-19.108 9.52a458.952 458.952 0 0 0-15.513 8.352 340.728 340.728 0 0 0-7.327 4.266 1319.973 1319.973 0 0 0 29.582-22.917l.687-.547c2.432-1.942 4.855-3.897 7.274-5.857zm-42.082 29.38c.463-.43.927-.858 1.397-1.28a139.523 139.523 0 0 1 6.395-5.398 185.568 185.568 0 0 1 2.761-2.159 250.85 250.85 0 0 1 4.316-3.228c4.639-3.4 9.368-6.675 14.046-10.021l.055-.039 3.731-2.872 2.631-1.78a199.279 199.279 0 0 0 5.69-4.431l.549 1.407a1329.643 1329.643 0 0 1-6.301 5.07 1316.072 1316.072 0 0 1-25.54 19.931c-2.546 1.936-5.101 3.86-7.661 5.778-.648.486-1.295.973-1.945 1.458a1.343 1.343 0 0 0-.81-.264c-.845-.005-1.376.732-1.839 1.337a12.918 12.918 0 0 1-4.488 3.711l-.04.02a96.786 96.786 0 0 1 7.053-7.24zm-14.551 9.167c.752.089 1.507.129 2.264.097a13.667 13.667 0 0 0 4.622-1.033 13.81 13.81 0 0 0 4.007-2.527c.549-.5 1.059-1.042 1.516-1.627.252-.322.478-.693.792-.96.262-.222.922-.464 1.167-.107a.927.927 0 0 0 .004.311.672.672 0 0 0-.031.151c-.319 3.644-2.925 6.568-6.336 7.704-3.575 1.192-7.466.335-10.586-1.65.676-.607 1.705-.463 2.581-.359zm23.473 67.996a804.435 804.435 0 0 0-3.201-9.31l-.009-.025a786.213 786.213 0 0 0-1.076-3.051l-.101-.282c-.331-.932-.664-1.864-.999-2.795l-.245-.679c-.289-.802-.578-1.603-.87-2.404l-.484-1.322c-.216-.59-.431-1.18-.649-1.77a810.958 810.958 0 0 0-15.009-37.743l-.28-.657a702.289 702.289 0 0 0-1.23-2.857c-.418-.965-.837-1.929-1.258-2.893l-.001-.003c3.215 1.632 6.914 2.186 10.417 1.018 2.896-.965 5.313-3.146 6.463-5.923.913 3.122 1.84 6.24 2.784 9.353l.019.062c.306 1.011.614 2.021.924 3.03l.099.322c.284.925.569 1.849.856 2.773l.223.715a945.989 945.989 0 0 0 2.733 8.642 971.044 971.044 0 0 0 11.155 32.679c.311.859.624 1.717.937 2.576l.25.687a961.856 961.856 0 0 0 2.403 6.499c-3.88 3.084-8.991 4.33-13.851 3.358z" data-color="4" class="icon1"></path></g></g>
</svg>
</g><g opacity="1" transform="rotate(0 121.4714 718.7879)">
<svg width="341.9719" height="26" x="121.4714" y="718.7879" version="1.1" preserveAspectRatio="none" viewBox="0.6 -29.2 497.08 37.8">
  <g transform="matrix(1 0 0 1 0 0)" class="text"><path id="id-6izo4zJp24" d="M20.72-20L11.32 3.36Q10.16 6.24 8.72 7.42Q7.28 8.60 5 8.60L5 8.60Q3.48 8.60 2.46 8.20Q1.44 7.80 0.60 6.92L0.60 6.92L1.72 4.20Q2.88 5.80 4.96 5.80L4.96 5.80Q6.12 5.80 7.02 5.10Q7.92 4.40 8.60 2.56L8.60 2.56L9.64-0.04L1.28-20L4.92-20L9.92-6.96L11.16-3.40L12.60-7.36L17.28-20L20.72-20Z M35.56-20.40Q40.08-20.40 42.66-17.64Q45.24-14.88 45.24-10L45.24-10Q45.24-5.12 42.66-2.36Q40.08 0.40 35.56 0.40L35.56 0.40Q31.04 0.40 28.46-2.36Q25.88-5.12 25.88-10L25.88-10Q25.88-14.88 28.46-17.64Q31.04-20.40 35.56-20.40L35.56-20.40ZM35.56-17.64Q32.52-17.64 30.80-15.60Q29.08-13.56 29.08-10L29.08-10Q29.08-6.44 30.80-4.40Q32.52-2.36 35.56-2.36L35.56-2.36Q38.60-2.36 40.32-4.40Q42.04-6.44 42.04-10L42.04-10Q42.04-13.56 40.32-15.60Q38.60-17.64 35.56-17.64L35.56-17.64Z M67.56-20L70.76-20L70.76 0L67.96 0L67.76-3.04Q65.76 0.40 60.60 0.40L60.60 0.40Q57.36 0.40 55.30-1.40Q53.24-3.20 53.24-6.92L53.24-6.92L53.24-20L56.44-20L56.44-7.76Q56.44-4.84 57.64-3.62Q58.84-2.40 61.16-2.40L61.16-2.40Q63.92-2.40 65.74-4.08Q67.56-5.76 67.56-9.12L67.56-9.12L67.56-20Z M89.64-20.40Q91.08-20.40 91.84-20L91.84-20L91.20-16.88Q90.24-17.40 88.68-17.40L88.68-17.40Q87.40-17.40 86.18-16.66Q84.96-15.92 84.18-14.42Q83.40-12.92 83.40-10.80L83.40-10.80L83.40 0L80.20 0L80.20-20L82.80-20L83.24-16.72Q84.92-20.40 89.64-20.40L89.64-20.40Z M121.68-20.40Q126.20-20.40 128.78-17.64Q131.36-14.88 131.36-10L131.36-10Q131.36-5.12 128.78-2.36Q126.20 0.40 121.68 0.40L121.68 0.40Q117.16 0.40 114.58-2.36Q112.00-5.12 112.00-10L112.00-10Q112.00-14.88 114.58-17.64Q117.16-20.40 121.68-20.40L121.68-20.40ZM121.68-17.64Q118.64-17.64 116.92-15.60Q115.20-13.56 115.20-10L115.20-10Q115.20-6.44 116.92-4.40Q118.64-2.36 121.68-2.36L121.68-2.36Q124.72-2.36 126.44-4.40Q128.16-6.44 128.16-10L128.16-10Q128.16-13.56 126.44-15.60Q124.72-17.64 121.68-17.64L121.68-17.64Z M164.40-20L167.96-20L161.00 0L157.80 0L152.16-15.92L146.84 0L143.64 0L136.68-20L140.24-20L145.28-3.72L150.72-20L153.92-20L159.36-3.72L164.40-20Z M184.88-20.40Q188.28-20.40 190.48-18.44Q192.68-16.48 192.68-12.80L192.68-12.80L192.68 0L189.48 0L189.48-11.68Q189.48-14.80 188.14-16.20Q186.80-17.60 184.56-17.60L184.56-17.60Q182.96-17.60 181.56-16.90Q180.16-16.20 179.26-14.62Q178.36-13.04 178.36-10.64L178.36-10.64L178.36 0L175.16 0L175.16-20L177.96-20L178.16-16.88Q179.16-18.68 180.92-19.54Q182.68-20.40 184.88-20.40L184.88-20.40Z M232.12-29.20L235.32-29.20L235.32 0L232.52 0L232.32-3.48Q231.44-1.72 229.62-0.66Q227.80 0.40 225.48 0.40L225.48 0.40Q221.28 0.40 218.82-2.38Q216.36-5.16 216.36-10L216.36-10Q216.36-14.84 218.82-17.62Q221.28-20.40 225.48-20.40L225.48-20.40Q227.68-20.40 229.42-19.44Q231.16-18.48 232.12-16.88L232.12-16.88L232.12-29.20ZM225.84-2.40Q228.72-2.40 230.42-4.40Q232.12-6.40 232.12-9.76L232.12-9.76L232.12-10.24Q232.12-13.60 230.42-15.60Q228.72-17.60 225.84-17.60L225.84-17.60Q222.92-17.60 221.24-15.54Q219.56-13.48 219.56-10L219.56-10Q219.56-6.52 221.24-4.46Q222.92-2.40 225.84-2.40L225.84-2.40Z M246.36-23.84Q245.28-23.84 244.62-24.50Q243.96-25.16 243.96-26.24L243.96-26.24Q243.96-27.32 244.62-27.98Q245.28-28.64 246.36-28.64L246.36-28.64Q247.44-28.64 248.10-27.98Q248.76-27.32 248.76-26.24L248.76-26.24Q248.76-25.16 248.10-24.50Q247.44-23.84 246.36-23.84L246.36-23.84ZM247.96-20L247.96 0L244.76 0L244.76-20L247.96-20Z M268.56-2.56Q271.40-2.56 273-1.28Q274.60 0 274.60 2.20L274.60 2.20Q274.60 4.12 273.28 5.58Q271.96 7.04 269.70 7.82Q267.44 8.60 264.72 8.60L264.72 8.60Q260.16 8.60 257.84 7.14Q255.52 5.68 255.52 3.32L255.52 3.32Q255.52 1.96 256.46 0.92Q257.40-0.12 259.04-0.56L259.04-0.56Q257.80-1.16 257.06-2.08Q256.32-3 256.32-4.24L256.32-4.24Q256.32-5.72 257.12-6.70Q257.92-7.68 259.32-8.16L259.32-8.16Q257.88-9.04 257.14-10.46Q256.40-11.88 256.40-13.64L256.40-13.64Q256.40-15.60 257.44-17.14Q258.48-18.68 260.36-19.54Q262.24-20.40 264.60-20.40L264.60-20.40Q266.84-20.40 268.68-19.60L268.68-19.60Q269.80-23.68 274.32-23.68L274.32-23.68L275.04-20.88Q271.12-20.88 270.28-18.68L270.28-18.68Q271.48-17.76 272.14-16.48Q272.80-15.20 272.80-13.64L272.80-13.64Q272.80-11.68 271.76-10.14Q270.72-8.60 268.84-7.74Q266.96-6.88 264.60-6.88L264.60-6.88Q262.84-6.88 261.52-7.24L261.52-7.24Q260.32-6.96 259.80-6.36Q259.28-5.76 259.28-4.72L259.28-4.72Q259.28-3.68 260-3.12Q260.72-2.56 261.92-2.56L261.92-2.56L268.56-2.56ZM264.60-17.80Q262.52-17.80 261.12-16.64Q259.72-15.48 259.72-13.64L259.72-13.64Q259.72-11.80 261.12-10.64Q262.52-9.48 264.60-9.48L264.60-9.48Q266.68-9.48 268.08-10.64Q269.48-11.80 269.48-13.64L269.48-13.64Q269.48-15.48 268.08-16.64Q266.68-17.80 264.60-17.80L264.60-17.80ZM265.08 5.92Q268.12 5.92 269.88 4.94Q271.64 3.96 271.64 2.56L271.64 2.56Q271.64 1.40 270.74 0.80Q269.84 0.20 267.68 0.20L267.68 0.20L262.32 0.20Q260.48 0.20 259.48 0.86Q258.48 1.52 258.48 2.68L258.48 2.68Q258.48 4.20 260.16 5.06Q261.84 5.92 265.08 5.92L265.08 5.92Z M282.96-23.84Q281.88-23.84 281.22-24.50Q280.56-25.16 280.56-26.24L280.56-26.24Q280.56-27.32 281.22-27.98Q281.88-28.64 282.96-28.64L282.96-28.64Q284.04-28.64 284.70-27.98Q285.36-27.32 285.36-26.24L285.36-26.24Q285.36-25.16 284.70-24.50Q284.04-23.84 282.96-23.84L282.96-23.84ZM284.56-20L284.56 0L281.36 0L281.36-20L284.56-20Z M305.12-4.08L306.24-1.40Q304.24 0.40 301.08 0.40L301.08 0.40Q298.64 0.40 297.10-0.92Q295.56-2.24 295.52-4.96L295.52-4.96L295.52-17.24L291.52-17.24L291.52-20L295.52-20L295.52-24.80L298.72-25.68L298.72-20L306.12-20L306.12-17.24L298.72-17.24L298.72-5.52Q298.72-4.08 299.54-3.34Q300.36-2.60 301.72-2.60L301.72-2.60Q303.64-2.60 305.12-4.08L305.12-4.08Z M329.16-2.32Q329.96-2.32 330.76-2.52L330.76-2.52L330.56 0Q329.44 0.40 328.16 0.40L328.16 0.40Q326.60 0.40 325.70-0.28Q324.80-0.96 324.56-2.56L324.56-2.56Q323.64-1.16 321.86-0.38Q320.08 0.40 318.12 0.40L318.12 0.40Q315.16 0.40 313.24-0.98Q311.32-2.36 311.32-4.96L311.32-4.96Q311.32-7.24 313.32-8.90Q315.32-10.56 319.12-11.20L319.12-11.20L324.44-12.08L324.44-13.20Q324.44-15.20 323.20-16.40Q321.96-17.60 319.76-17.60L319.76-17.60Q317.76-17.60 316.30-16.64Q314.84-15.68 314.04-13.80L314.04-13.80L311.68-15.52Q312.48-17.76 314.66-19.08Q316.84-20.40 319.76-20.40L319.76-20.40Q323.32-20.40 325.48-18.68Q327.64-16.96 327.64-13.60L327.64-13.60L327.64-3.76Q327.64-3.04 328.00-2.68Q328.36-2.32 329.16-2.32L329.16-2.32ZM318.28-2.40Q320.80-2.40 322.62-3.60Q324.44-4.80 324.44-6.72L324.44-6.72L324.44-9.48L319.96-8.64Q317.28-8.16 315.96-7.26Q314.64-6.36 314.64-4.96L314.64-4.96Q314.64-3.72 315.60-3.06Q316.56-2.40 318.28-2.40L318.28-2.40Z M340.44-29.20L340.44-5.36Q340.44-3.84 340.90-3.26Q341.36-2.68 342.60-2.68L342.60-2.68Q343.44-2.68 344.06-2.80Q344.68-2.92 345.52-3.24L345.52-3.24L345.00-0.16Q343.68 0.40 342.04 0.40L342.04 0.40Q339.60 0.40 338.42-0.92Q337.24-2.24 337.24-4.96L337.24-4.96L337.24-29.20L340.44-29.20Z M368.92-29.20L368.92-5.36Q368.92-3.84 369.38-3.26Q369.84-2.68 371.08-2.68L371.08-2.68Q371.92-2.68 372.54-2.80Q373.16-2.92 374.00-3.24L374.00-3.24L373.48-0.16Q372.16 0.40 370.52 0.40L370.52 0.40Q368.08 0.40 366.90-0.92Q365.72-2.24 365.72-4.96L365.72-4.96L365.72-29.20L368.92-29.20Z M381.72-23.84Q380.64-23.84 379.98-24.50Q379.32-25.16 379.32-26.24L379.32-26.24Q379.32-27.32 379.98-27.98Q380.64-28.64 381.72-28.64L381.72-28.64Q382.80-28.64 383.46-27.98Q384.12-27.32 384.12-26.24L384.12-26.24Q384.12-25.16 383.46-24.50Q382.80-23.84 381.72-23.84L381.72-23.84ZM383.32-20L383.32 0L380.12 0L380.12-20L383.32-20Z M402.60-20.40Q406.80-20.40 409.26-17.62Q411.72-14.84 411.72-10L411.72-10Q411.72-5.16 409.26-2.38Q406.80 0.40 402.60 0.40L402.60 0.40Q400.28 0.40 398.46-0.66Q396.64-1.72 395.76-3.48L395.76-3.48L395.56 0L392.76 0L392.76-29.20L395.96-29.20L395.96-16.88Q396.92-18.48 398.66-19.44Q400.40-20.40 402.60-20.40L402.60-20.40ZM402.24-2.40Q405.16-2.40 406.84-4.46Q408.52-6.52 408.52-10L408.52-10Q408.52-13.48 406.84-15.54Q405.16-17.60 402.24-17.60L402.24-17.60Q399.36-17.60 397.66-15.60Q395.96-13.60 395.96-10.24L395.96-10.24L395.96-9.76Q395.96-6.40 397.66-4.40Q399.36-2.40 402.24-2.40L402.24-2.40Z M429.40-20.40Q430.84-20.40 431.60-20L431.60-20L430.96-16.88Q430.00-17.40 428.44-17.40L428.44-17.40Q427.16-17.40 425.94-16.66Q424.72-15.92 423.94-14.42Q423.16-12.92 423.16-10.80L423.16-10.80L423.16 0L419.96 0L419.96-20L422.56-20L423.00-16.72Q424.68-20.40 429.40-20.40L429.40-20.40Z M454.12-2.32Q454.92-2.32 455.72-2.52L455.72-2.52L455.52 0Q454.40 0.40 453.12 0.40L453.12 0.40Q451.56 0.40 450.66-0.28Q449.76-0.96 449.52-2.56L449.52-2.56Q448.60-1.16 446.82-0.38Q445.04 0.40 443.08 0.40L443.08 0.40Q440.12 0.40 438.20-0.98Q436.28-2.36 436.28-4.96L436.28-4.96Q436.28-7.24 438.28-8.90Q440.28-10.56 444.08-11.20L444.08-11.20L449.40-12.08L449.40-13.20Q449.40-15.20 448.16-16.40Q446.92-17.60 444.72-17.60L444.72-17.60Q442.72-17.60 441.26-16.64Q439.80-15.68 439.00-13.80L439.00-13.80L436.64-15.52Q437.44-17.76 439.62-19.08Q441.80-20.40 444.72-20.40L444.72-20.40Q448.28-20.40 450.44-18.68Q452.60-16.96 452.60-13.60L452.60-13.60L452.60-3.76Q452.60-3.04 452.96-2.68Q453.32-2.32 454.12-2.32L454.12-2.32ZM443.24-2.40Q445.76-2.40 447.58-3.60Q449.40-4.80 449.40-6.72L449.40-6.72L449.40-9.48L444.92-8.64Q442.24-8.16 440.92-7.26Q439.60-6.36 439.60-4.96L439.60-4.96Q439.60-3.72 440.56-3.06Q441.52-2.40 443.24-2.40L443.24-2.40Z M471.80-20.40Q473.24-20.40 474.00-20L474.00-20L473.36-16.88Q472.40-17.40 470.84-17.40L470.84-17.40Q469.56-17.40 468.34-16.66Q467.12-15.92 466.34-14.42Q465.56-12.92 465.56-10.80L465.56-10.80L465.56 0L462.36 0L462.36-20L464.96-20L465.40-16.72Q467.08-20.40 471.80-20.40L471.80-20.40Z M497.68-20L488.28 3.36Q487.12 6.24 485.68 7.42Q484.24 8.60 481.96 8.60L481.96 8.60Q480.44 8.60 479.42 8.20Q478.40 7.80 477.56 6.92L477.56 6.92L478.68 4.20Q479.84 5.80 481.92 5.80L481.92 5.80Q483.08 5.80 483.98 5.10Q484.88 4.40 485.56 2.56L485.56 2.56L486.60-0.04L478.24-20L481.88-20L486.88-6.96L488.12-3.40L489.56-7.36L494.24-20L497.68-20Z"/></g>
</svg>
</g><g opacity="1" transform="rotate(0 107.6873 594.7879)">
<svg width="369.54" height="100" x="107.6873" y="594.7879" version="1.1" preserveAspectRatio="none" viewBox="2.4 -27.24 102.88 27.839999999999996">
  <g transform="matrix(1 0 0 1 0 0)" class="companyName"><path id="id-D6z1nYkh6" d="M3.20 0L3.20 0L2.40 0L2.40-9.32L3.20-9.32Q3.20-5.56 5.90-2.92Q8.60-0.28 12.48-0.28L12.48-0.28Q14.08-0.28 15.06-1.22Q16.04-2.16 16.04-3.72L16.04-3.72Q16.04-5.48 13.76-6.72L13.76-6.72Q12.52-7.36 9.48-8.74Q6.44-10.12 5.20-11.08L5.20-11.08Q2.72-13 3.02-16.16Q3.32-19.32 5.40-21.06Q7.48-22.80 10.10-22.80Q12.72-22.80 14.82-22.10Q16.92-21.40 17.20-21.40L17.20-21.40Q18-21.40 18-22.80L18-22.80L18.80-22.80L18.80-15.48L18-15.48Q18-18.36 15.88-20.18Q13.76-22 10.44-22L10.44-22Q8.96-22 8.12-21.14Q7.28-20.28 7.28-19.24Q7.28-18.20 7.56-17.64Q7.84-17.08 8.54-16.62Q9.24-16.16 9.76-15.88Q10.28-15.60 11.42-15.12Q12.56-14.64 13-14.44L13-14.44Q15.20-13.44 15.60-13.26Q16-13.08 16.76-12.68Q17.52-12.28 17.90-11.96Q18.28-11.64 18.88-11.16Q19.48-10.68 19.76-10.18Q20.04-9.68 20.32-9.04L20.32-9.04Q20.88-7.76 20.72-6.04L20.72-6.04Q20.40-2.80 18.30-1.10Q16.20 0.60 12.64 0.60L12.64 0.60Q9.44 0.60 6.28-1.04L6.28-1.04Q5.20-1.60 4.68-1.60L4.68-1.60Q3.20-1.60 3.20 0Z M43.32-0.80Q42.92-0.40 41.80-0.10Q40.68 0.20 39.20 0.20L39.20 0.20Q35.92 0.20 35.08-1.76L35.08-1.76Q33.08 0.32 28.96 0.32L28.96 0.32Q26.76 0.32 25.34-0.70Q23.92-1.72 23.92-3.72L23.92-3.72Q23.92-6.40 26-7.86Q28.08-9.32 33.28-9.92L33.28-9.92L34.88-10.12L34.88-12.08Q34.88-15.56 34.36-16.76Q33.84-17.96 32.30-17.96Q30.76-17.96 30.32-17.54Q29.88-17.12 30-16.58Q30.12-16.04 30.40-15.16Q30.68-14.28 30.68-13.76L30.68-13.76Q30.68-12.52 29.82-11.66Q28.96-10.80 27.74-10.80Q26.52-10.80 25.64-11.66Q24.76-12.52 24.76-13.76L24.76-13.76Q24.76-15.80 26.86-17.26Q28.96-18.72 33.14-18.72Q37.32-18.72 39.10-17.08Q40.88-15.44 40.88-11.28L40.88-11.28L40.88-4.08Q40.88-1.96 41.40-1.42Q41.92-0.88 43.32-1.20L43.32-1.20L43.32-0.80ZM29.48-4.52Q29.68-3 30.60-2.18Q31.52-1.36 32.74-1.36Q33.96-1.36 34.88-2.56L34.88-2.56L34.88-9.36L33.44-9.16Q31.60-8.92 30.46-7.76Q29.32-6.60 29.48-4.52L29.48-4.52Z M57.72-17.60L53.08-17.60L53.08-7.84Q53.08-4.40 53.36-3.66Q53.64-2.92 53.96-2.40L53.96-2.40Q54.56-1.36 56.06-1.36Q57.56-1.36 58.16-1.76L58.16-1.76L58.16-0.96Q56.24 0.40 53.96 0.40L53.96 0.40Q50.60 0.40 48.84-1.20Q47.08-2.80 47.08-6.92L47.08-6.92L47.08-17.60L44.12-17.60L44.12-18.40L47.08-18.40Q49.00-18.72 50.48-20.26Q51.96-21.80 52.52-24.52L52.52-24.52L53.08-24.52L53.08-18.40L57.72-18.40L57.72-17.60Z M68.16-26.80L68.16-0.80L70.16-0.80L70.16 0L60.16 0L60.16-0.80L62.16-0.80L62.16-26L60.16-26L60.16-26.80L68.16-26.80Z M80.96-18.40L80.96-0.80L82.96-0.80L82.96 0L72.96 0L72.96-0.80L74.96-0.80L74.96-17.60L73.36-17.60L73.36-18.40L80.96-18.40ZM81.32-23.70Q81.32-22.24 80.30-21.22Q79.28-20.20 77.82-20.20Q76.36-20.20 75.32-21.22Q74.28-22.24 74.28-23.70Q74.28-25.16 75.32-26.20Q76.36-27.24 77.82-27.24Q79.28-27.24 80.30-26.20Q81.32-25.16 81.32-23.70Z M92.56-15.76L92.56-6.24Q92.56-3.20 93.24-1.86Q93.92-0.52 95.42-0.52Q96.92-0.52 98.08-2.78Q99.24-5.04 99.24-9.14Q99.24-13.24 98.02-15.44Q96.80-17.64 95.16-17.64Q93.52-17.64 92.56-15.76L92.56-15.76ZM101.96-1.42Q100.48-0.44 99.08-0.04Q97.68 0.36 96.34 0.36Q95 0.36 93.88-0.14Q92.76-0.64 92.10-1.22Q91.44-1.80 90.64-2.30Q89.84-2.80 89.12-2.80Q88.40-2.80 87.86-2Q87.32-1.20 87.32 0L87.32 0L86.56 0L86.56-26L84.56-26L84.56-26.80L92.56-26.80L92.56-16.96Q93.20-18.04 94.66-18.66Q96.12-19.28 97.72-19.28L97.72-19.28Q100.76-19.28 103.02-16.62Q105.28-13.96 105.28-9.20L105.28-9.20Q105.28-6.40 104.36-4.40Q103.44-2.40 101.96-1.42Z"/></g>
</svg>
</g></svg></svg>